<?xml version="1.0" encoding="UTF-8" standalone="no"?>
<!-- Created with Inkscape (http://www.inkscape.org/) -->

<svg
   xmlns:dc="http://purl.org/dc/elements/1.1/"
   xmlns:cc="http://creativecommons.org/ns#"
   xmlns:rdf="http://www.w3.org/1999/02/22-rdf-syntax-ns#"
   xmlns:svg="http://www.w3.org/2000/svg"
   xmlns="http://www.w3.org/2000/svg"
   xmlns:sodipodi="http://sodipodi.sourceforge.net/DTD/sodipodi-0.dtd"
   xmlns:inkscape="http://www.inkscape.org/namespaces/inkscape"
   width="118.15363mm"
   height="36.870441mm"
   viewBox="0 0 118.15363 36.870441"
   version="1.1"
   id="svg8"
   inkscape:version="0.92.4 (5da689c313, 2019-01-14)"
   sodipodi:docname="logo.svg">
  <defs
     id="defs2" />
  <sodipodi:namedview
     id="base"
     pagecolor="#ffffff"
     bordercolor="#666666"
     borderopacity="1.0"
     inkscape:pageopacity="0.0"
     inkscape:pageshadow="2"
     inkscape:zoom="1.4"
     inkscape:cx="333.33156"
     inkscape:cy="-72.602725"
     inkscape:document-units="mm"
     inkscape:current-layer="layer1"
     showgrid="false"
     fit-margin-top="0"
     fit-margin-left="0"
     fit-margin-right="0"
     fit-margin-bottom="0"
     inkscape:window-width="1846"
     inkscape:window-height="1668"
     inkscape:window-x="196"
     inkscape:window-y="196"
     inkscape:window-maximized="0" />
  <metadata
     id="metadata5">
    <rdf:RDF>
      <cc:Work
         rdf:about="">
        <dc:format>image/svg+xml</dc:format>
        <dc:type
           rdf:resource="http://purl.org/dc/dcmitype/StillImage" />
        <dc:title></dc:title>
      </cc:Work>
    </rdf:RDF>
  </metadata>
  <g
     inkscape:label="Layer 1"
     inkscape:groupmode="layer"
     id="layer1"
     transform="translate(-10.698178,-96.267717)">
    <g
       id="g3767"
       transform="matrix(0.61992607,0,0,0.61992607,7.38892,37.297276)">
      <path
         style="fill:#fdacc8;stroke-width:0.43218389"
         d="m 114.24848,154.06852 c -4.46325,-1.32728 -4.2426,-1.0545 -4.39863,-5.43773 -0.0766,-2.15228 -0.11086,-3.91278 -0.0761,-3.91224 0.0348,4.4e-4 1.52171,0.69365 3.30435,1.54022 3.64686,1.73188 6.96288,2.25841 9.6496,1.53218 3.19941,-0.8648 4.61381,-2.48367 5.32858,-6.09885 l 0.2995,-1.51482 -2.36052,1.19068 c -2.62793,1.32555 -6.56909,1.61127 -9.61944,0.69736 -3.56981,-1.06954 -6.91049,-5.08167 -8.03902,-9.6548 l -0.69526,-2.81741 h -1.66664 -1.66663 v 6.28415 6.28414 l -3.56552,-0.12552 c -3.017786,-0.10624 -3.557194,-0.23633 -3.511327,-0.84684 0.04785,-0.63691 -0.15304,-0.6133 -1.716695,0.20172 -2.147526,1.11935 -6.246258,1.45726 -8.925435,0.73584 -4.630526,-1.24688 -7.485801,-6.66675 -6.085097,-11.55071 0.447695,-1.56104 0.844915,-1.38862 -5.082271,-2.20604 -3.276619,-0.45188 -3.331368,-0.38186 -2.921001,3.73597 0.411037,4.12451 2.054114,5.07181 5.011942,2.88959 0.805465,-0.59425 1.523936,-1.08046 1.596608,-1.08046 0.07267,0 0.132127,1.66303 0.132127,3.69562 v 3.69561 l -1.498762,0.62623 c -2.95609,1.23513 -7.678213,0.54549 -9.874494,-1.44212 -1.732875,-1.56823 -2.216532,-3.20925 -2.447453,-8.30407 l -0.225267,-4.97012 -2.485057,-0.12961 -2.485057,-0.12962 v 1.31812 1.31812 h -9.53717 -9.537168 l 0.299967,0.97242 c 0.164982,0.53482 0.563167,1.49007 0.884858,2.12275 2.067443,4.0662 8.138606,4.40944 13.355394,0.75507 1.326372,-0.92912 2.500188,-1.68932 2.608485,-1.68932 0.108292,0 0.196898,1.73816 0.196898,3.86258 v 3.86257 l -2.907569,1.43168 c -2.758612,1.35833 -3.151618,1.43168 -7.671263,1.43168 -4.178531,0 -5.013359,-0.12761 -6.79616,-1.03883 -2.593379,-1.32552 -4.292379,-3.10248 -5.824928,-6.09221 -1.147377,-2.23832 -1.217788,-2.6922 -1.206798,-7.77931 0.0106,-4.90849 0.115343,-5.62555 1.145865,-7.84471 2.361926,-5.08626 6.925608,-8.1344 12.190022,-8.14187 4.311238,-0.006 6.170035,0.68629 8.764145,3.26465 1.7975,1.78659 2.406603,2.78546 3.133333,5.13833 0.496147,1.60635 0.902089,3.44657 0.902089,4.08938 0,1.09269 0.168733,1.19665 2.593103,1.5976 l 2.593103,0.42886 v -3.58796 -3.58795 h -2.377011 -2.377011 v -3.45748 -3.45747 h 2.377011 2.377011 v -3.13543 -3.13543 l 3.457471,-1.11067 3.457471,-1.11066 v 4.24609 4.2461 h 3.457471 3.457471 v 3.45747 3.45748 H 75.78412 72.326649 v 3.88142 c 0,4.49683 -0.459096,4.13431 5.692938,4.49543 3.076907,0.18062 3.849721,0.0976 4.315494,-0.46363 1.752372,-2.11148 5.907089,-3.59096 11.9249,-4.24642 2.984324,-0.32505 3.233924,-0.68669 1.961086,-2.84144 -1.653644,-2.79939 -7.297892,-1.93155 -11.514169,1.77039 -0.810518,0.71165 -1.593856,1.2939 -1.740755,1.2939 -0.146895,0 -0.267081,-1.8578 -0.267081,-4.12845 v -4.12846 l 2.917241,-1.36833 c 2.500257,-1.17275 3.504104,-1.39031 7.022988,-1.52211 3.81385,-0.14285 4.274588,-0.067 6.480653,1.0669 1.774586,0.91212 2.700396,1.75384 3.662556,3.32989 1.18111,1.93473 1.30642,2.52463 1.51474,7.13104 l 0.22711,5.02182 1.62069,0.13414 c 1.6154,0.13369 1.62069,0.1287 1.62069,-1.5299 0,-0.91521 0.29812,-2.80859 0.6625,-4.20752 1.37987,-5.29771 4.36581,-9.01516 8.32464,-10.36407 2.84567,-0.96961 7.48391,-0.87749 9.69882,0.19264 2.14015,1.03401 2.05886,1.02548 2.05886,0.21609 0,-0.5254 0.6963,-0.64828 3.67357,-0.64828 h 3.67356 v 4.75403 c 0,2.61471 0.11426,4.75402 0.25392,4.75402 0.93321,0 5.73721,-3.24033 6.44493,-4.34715 1.229,-1.92205 4.219,-4.1151 7.05955,-5.17789 1.34056,-0.50156 2.53713,-1.06722 2.65903,-1.25701 0.12191,-0.1898 0.90234,-0.80909 1.73429,-1.37622 0.83196,-0.56713 2.5823,-1.8223 3.88966,-2.78928 4.35633,-3.22213 13.69776,-8.281933 17.93563,-9.714869 0.9508,-0.321492 1.92321,-0.715993 2.16092,-0.876668 0.2377,-0.160675 1.06425,-0.427288 1.83678,-0.592474 1.07795,-0.230492 1.4046,-0.154319 1.4046,0.327551 0,0.38346 -1.38801,1.181222 -3.56552,2.0493 -8.527,3.39934 -13.90253,6.3717 -21.48321,11.879 l -2.35906,1.71384 1.98802,0.28437 c 6.41814,0.91808 10.29333,6.44364 10.29333,14.67705 v 3.41194 h -9.53717 -9.53717 l 0.29997,0.97242 c 0.16498,0.53482 0.56317,1.49007 0.88486,2.12275 2.06744,4.0662 8.1386,4.40944 13.35539,0.75507 1.32637,-0.92912 2.50019,-1.68932 2.60849,-1.68932 0.10829,0 0.19689,1.73816 0.19689,3.86258 v 3.86257 l -2.78243,1.36979 c -2.23371,1.09965 -3.50057,1.41459 -6.42383,1.59697 -6.93462,0.43263 -10.99711,-1.62373 -13.65166,-6.91023 -1.26814,-2.52548 -1.49113,-3.45394 -1.66084,-6.91494 -0.10782,-2.19878 -0.002,-4.83439 0.2354,-5.85693 0.23728,-1.02254 0.30202,-1.80047 0.14385,-1.72874 -0.15817,0.0717 -1.20942,0.60249 -2.3361,1.17945 l -2.04852,1.04902 v 8.09687 c 0,14.15739 -1.60372,18.669 -7.70365,21.67198 -2.59994,1.27995 -3.25331,1.41308 -7.40611,1.50912 -2.84989,0.0659 -5.28253,-0.11114 -6.49944,-0.47302 z M 93.724168,135.4536 c 1.700578,-0.71055 3.232968,-2.92338 3.235345,-4.67198 l 0.0016,-1.18851 h -3.693206 c -3.344939,0 -3.793243,0.10004 -4.754022,1.06082 -0.583449,0.58345 -1.060817,1.5647 -1.060817,2.18056 0,1.55274 1.798217,3.24138 3.451705,3.24138 0.731545,0 2.000264,-0.28002 2.819378,-0.62227 z m 30.731882,-0.0793 c 0.81313,-0.38585 1.87365,-1.2566 2.35671,-1.935 0.87629,-1.23063 1.9369,-6.13496 1.48491,-6.8663 -0.13296,-0.21512 -0.75989,-0.22981 -1.41736,-0.0332 -2.73005,0.81633 -6.09982,1.51907 -9.49436,1.97999 -2.17254,0.29499 -2.2543,0.35395 -2.00637,1.44675 1.12593,4.96286 5.06648,7.31064 9.07647,5.40778 z m -2.42826,-9.18403 c 1.06966,-0.22307 2.95244,-0.66118 4.18395,-0.97358 2.17328,-0.55128 2.23184,-0.60649 1.99115,-1.8774 -0.57401,-3.03108 -2.13577,-4.75357 -4.7556,-5.24505 -4.30284,-0.80722 -7.31928,1.87567 -8.11636,7.21889 l -0.29637,1.9867 2.5242,-0.35199 c 1.38832,-0.19359 3.39938,-0.5345 4.46903,-0.75757 z m -72.552863,-3.51211 c 2.310234,0 2.971264,-0.1397 2.971264,-0.62794 0,-1.34416 -1.050864,-2.81954 -2.497072,-3.50581 -2.874191,-1.36389 -6.106814,-0.13881 -7.696745,2.91688 -0.579204,1.11317 -0.555669,1.16802 0.581296,1.35453 0.651716,0.10692 1.744073,0.11968 2.427464,0.0284 0.683391,-0.0913 2.579598,-0.16603 4.213793,-0.16603 z m 108.856313,-0.62794 c 0,-2.15275 -2.42934,-4.12608 -5.07957,-4.12608 -1.62861,0 -3.93257,1.54867 -4.98512,3.35089 l -0.81947,1.40313 h 5.44208 c 4.47095,0 5.44208,-0.11205 5.44208,-0.62794 z m 17.28735,19.61009 c -4.10605,-1.8565 -6.57926,-5.51234 -7.42967,-10.98237 -1.25833,-8.09388 1.96703,-15.36869 8.07795,-18.21989 2.89255,-1.34959 7.88036,-1.42283 10.37241,-0.1523 0.93248,0.4754 1.75153,0.86436 1.82012,0.86436 0.0686,0 0.12471,-3.20896 0.12471,-7.13103 v -7.131034 h 3.67356 3.67357 v 21.609194 21.60919 h -3.67357 c -3.65631,0 -3.67356,-0.005 -3.67356,-1.10988 v -1.10989 l -1.1885,0.82769 c -2.93828,2.04626 -8.35695,2.47229 -11.77702,0.92596 z m 9.8519,-6.74993 c 2.01325,-1.50311 2.88452,-3.84298 3.02596,-8.12647 0.10188,-3.08547 -0.0322,-4.19604 -0.64827,-5.37158 -1.25345,-2.39152 -2.8169,-3.2721 -5.80953,-3.2721 -2.47841,0 -2.66517,0.078 -4.24627,1.773 -3.88404,4.1639 -3.15008,12.96189 1.28369,15.38756 1.84444,1.00907 4.75825,0.83117 6.39442,-0.39041 z M 5.3381488,121.59771 v -20.52873 h 7.7008682 c 8.714074,0 10.993384,0.44305 13.973701,2.71621 2.784195,2.12358 4.041025,4.93068 4.000265,8.93449 -0.02448,2.40466 -0.269074,3.71817 -0.932525,5.0078 -0.947811,1.84238 -4.476707,5.38287 -5.365236,5.38287 -0.287484,0 -0.01815,0.53483 0.598513,1.18851 1.059978,1.1236 11.141653,17.02231 11.141653,17.57029 0,0.14151 -1.90309,0.25729 -4.229088,0.25729 h -4.229087 l -4.319514,-7.20212 c -2.375733,-3.96116 -4.802642,-7.56283 -5.393132,-8.00369 -0.59049,-0.44087 -2.091895,-0.92217 -3.336455,-1.06957 l -2.262837,-0.268 v 8.27169 8.27169 H 9.0117117 5.3381488 Z m 16.5105982,-4.42607 c 1.090653,-1.09066 1.385099,-1.7892 1.537539,-3.64767 0.329868,-4.02158 -1.794173,-5.53269 -7.78377,-5.53764 l -2.917241,-0.002 v 5.45516 5.45516 l 3.90724,-0.1868 c 3.686148,-0.17624 3.983575,-0.26314 5.256232,-1.5358 z"
         id="path3781"
         inkscape:connector-curvature="0" />
      <path
         style="fill:#cfcfcf;stroke-width:0.43218389"
         d="m 114.24848,154.06852 c -4.46325,-1.32728 -4.2426,-1.0545 -4.39863,-5.43773 -0.0766,-2.15228 -0.11086,-3.91278 -0.0761,-3.91224 0.0348,4.4e-4 1.52171,0.69365 3.30435,1.54022 3.64686,1.73188 6.96288,2.25841 9.6496,1.53218 3.19941,-0.8648 4.61381,-2.48367 5.32858,-6.09885 l 0.2995,-1.51482 -2.36052,1.19068 c -2.62793,1.32555 -6.56909,1.61127 -9.61944,0.69736 -3.51024,-1.05169 -6.86171,-5.02035 -8.00357,-9.47747 -0.76023,-2.96748 -0.55404,-3.40766 1.60213,-3.42031 0.6205,-0.003 2.01641,-0.12836 3.10201,-0.27715 l 1.97383,-0.27055 0.50819,1.88727 c 1.03677,3.85027 3.46679,5.82476 6.71763,5.45834 3.63208,-0.40939 5.60901,-2.87706 5.95062,-7.42775 0.18612,-2.47929 0.2192,-2.5351 1.85738,-3.13312 0.91735,-0.33488 1.86238,-0.65709 2.10009,-0.71601 0.2377,-0.0589 0.85698,-0.34089 1.37618,-0.62659 2.27054,-1.24938 2.29738,-1.16249 2.29738,7.43794 0,14.00383 -1.62245,18.53874 -7.70365,21.5325 -2.59994,1.27995 -3.25331,1.41308 -7.40611,1.50912 -2.84989,0.0659 -5.28253,-0.11114 -6.49944,-0.47302 z M 42.998418,142.0898 c -3.377462,-1.03486 -5.817667,-3.21489 -7.699203,-6.8783 -1.150407,-2.23988 -1.220165,-2.68867 -1.209168,-7.77931 0.0106,-4.90849 0.115343,-5.62555 1.145865,-7.84471 2.361926,-5.08626 6.925608,-8.1344 12.190022,-8.14187 4.311238,-0.006 6.170035,0.68629 8.764145,3.26465 1.7975,1.78659 2.406603,2.78546 3.133333,5.13833 0.496147,1.60635 0.902089,3.50845 0.902089,4.22689 0,1.29497 -0.01586,1.30371 -1.836782,1.01103 -2.374141,-0.38161 -7.267466,-1.05408 -10.168992,-1.39748 -3.549622,-0.4201 -3.115121,-1.01086 0.743485,-1.01086 3.762576,0 3.9784,-0.16855 2.990912,-2.33585 -0.690297,-1.51504 -3.10831,-2.57078 -5.234724,-2.28557 -1.776656,0.2383 -3.985159,1.92478 -4.453681,3.40096 -0.193482,0.60961 -0.692559,0.78828 -2.201908,0.78828 -4.478789,0 -0.175964,1.62248 6.115714,2.30608 0.713103,0.0775 2.657931,0.36151 4.321839,0.63119 1.663907,0.26967 4.532528,0.71904 6.374712,0.99858 l 3.349425,0.50826 v 1.45151 1.4515 h -9.53717 -9.537168 l 0.299967,0.97242 c 0.164982,0.53482 0.563167,1.49007 0.884858,2.12275 2.067443,4.0662 8.138606,4.40944 13.355394,0.75507 1.326372,-0.92912 2.500188,-1.68932 2.608485,-1.68932 0.108292,0 0.196898,1.73816 0.196898,3.86258 v 3.86257 l -2.823682,1.39009 c -2.488117,1.2249 -3.322716,1.40646 -7.022988,1.52782 -2.309616,0.0757 -4.852871,-0.0625 -5.651677,-0.30729 z m 26.95122,-0.34399 c -3.495011,-1.60492 -4.537931,-3.89641 -4.537931,-9.97071 v -4.32852 l 2.485057,0.19229 c 1.366782,0.10575 2.893817,0.19976 3.393413,0.20889 0.825571,0.0151 0.933353,0.34157 1.182602,3.58213 0.202556,2.6335 0.466836,3.70674 1.011029,4.10575 1.123704,0.82393 2.414646,0.65084 4.029048,-0.54023 0.805465,-0.59425 1.523936,-1.08046 1.596608,-1.08046 0.07267,0 0.132127,1.66303 0.132127,3.69562 v 3.69561 l -1.498762,0.62623 c -2.058535,0.86011 -5.703854,0.77282 -7.793191,-0.1866 z m 15.990803,0.18536 c -4.388771,-1.60835 -6.739696,-6.68394 -5.37393,-11.60217 l 0.455729,-1.64114 3.755652,0.27063 c 4.96256,0.3576 5.039424,0.39202 3.751257,1.68019 -1.366526,1.36652 -1.372287,3.01934 -0.01526,4.37637 2.676657,2.67667 8.440145,-0.21233 8.445612,-4.23343 l 0.0016,-1.18851 h 3.673559 3.67357 v 6.28415 6.28414 l -3.56552,-0.12552 c -3.017785,-0.10624 -3.557193,-0.23633 -3.511326,-0.84684 0.04774,-0.63549 -0.157941,-0.61041 -1.728735,0.21088 -2.253022,1.17798 -7.067589,1.44546 -9.562237,0.53125 z m 62.860059,0.15478 c -0.84443,-0.24045 -2.49753,-1.15626 -3.67356,-2.03512 -4.09067,-3.05705 -6.0663,-9.21619 -5.19447,-16.1941 0.33207,-2.65778 0.92776,-3.52598 3.48843,-5.08427 0.9508,-0.57861 3.67356,-2.51955 6.05057,-4.31321 4.28212,-3.23122 4.34027,-3.25847 6.3278,-2.96597 6.45171,0.9495 10.31128,6.44725 10.31128,14.68789 v 3.41194 h -9.53717 -9.53717 l 0.29997,0.97242 c 0.16498,0.53482 0.56317,1.49007 0.88486,2.12275 2.06744,4.0662 8.1386,4.40944 13.35539,0.75507 1.32637,-0.92912 2.50019,-1.68932 2.60849,-1.68932 0.10829,0 0.19689,1.73816 0.19689,3.86258 v 3.86257 l -2.82368,1.39009 c -2.49283,1.22722 -3.3157,1.40555 -7.02299,1.52198 -2.30961,0.0725 -4.8902,-0.0649 -5.73464,-0.3053 z m 9.53074,-20.03572 c 0,-2.15275 -2.42934,-4.12608 -5.07957,-4.12608 -1.62861,0 -3.93257,1.54867 -4.98512,3.35089 l -0.81947,1.40313 h 5.44208 c 4.47095,0 5.44208,-0.11205 5.44208,-0.62794 z m 17.28735,19.61009 c -4.10605,-1.8565 -6.57926,-5.51234 -7.42967,-10.98237 -1.25833,-8.09388 1.96703,-15.36869 8.07795,-18.21989 2.89255,-1.34959 7.88036,-1.42283 10.37241,-0.1523 0.93248,0.4754 1.75153,0.86436 1.82012,0.86436 0.0686,0 0.12471,-3.20896 0.12471,-7.13103 v -7.131034 h 3.67356 3.67357 v 21.609194 21.60919 h -3.67357 c -3.65631,0 -3.67356,-0.005 -3.67356,-1.10988 v -1.10989 l -1.1885,0.82769 c -2.93828,2.04626 -8.35695,2.47229 -11.77702,0.92596 z m 9.8519,-6.74993 c 2.01325,-1.50311 2.88452,-3.84298 3.02596,-8.12647 0.10188,-3.08547 -0.0322,-4.19604 -0.64827,-5.37158 -1.25345,-2.39152 -2.8169,-3.2721 -5.80953,-3.2721 -2.47841,0 -2.66517,0.078 -4.24627,1.773 -3.88404,4.1639 -3.15008,12.96189 1.28369,15.38756 1.84444,1.00907 4.75825,0.83117 6.39442,-0.39041 z M 5.3381488,121.59771 v -20.52873 h 7.7008682 c 8.714074,0 10.993384,0.44305 13.973701,2.71621 2.784195,2.12358 4.041025,4.93068 4.000265,8.93449 -0.02448,2.40466 -0.269074,3.71817 -0.932525,5.0078 -0.947811,1.84238 -4.476707,5.38287 -5.365236,5.38287 -0.287484,0 -0.01815,0.53483 0.598513,1.18851 1.059978,1.1236 11.141653,17.02231 11.141653,17.57029 0,0.14151 -1.90309,0.25729 -4.229088,0.25729 h -4.229087 l -4.319514,-7.20212 c -2.375733,-3.96116 -4.802642,-7.56283 -5.393132,-8.00369 -0.59049,-0.44087 -2.091895,-0.92217 -3.336455,-1.06957 l -2.262837,-0.268 v 8.27169 8.27169 H 9.0117117 5.3381488 Z m 16.5105982,-4.42607 c 1.090653,-1.09066 1.385099,-1.7892 1.537539,-3.64767 0.329868,-4.02158 -1.794173,-5.53269 -7.78377,-5.53764 l -2.917241,-0.002 v 5.45516 5.45516 l 3.90724,-0.1868 c 3.686148,-0.17624 3.983575,-0.26314 5.256232,-1.5358 z m 65.388246,10.83604 c -4.710282,-0.3912 -5.487971,-0.59979 -4.89593,-1.31315 1.746217,-2.10406 5.908882,-3.5846 11.918918,-4.23921 2.984324,-0.32505 3.233924,-0.68669 1.961086,-2.84144 -1.653644,-2.79939 -7.297892,-1.93155 -11.514169,1.77039 -0.810518,0.71165 -1.593856,1.2939 -1.740755,1.2939 -0.146895,0 -0.267081,-1.8578 -0.267081,-4.12845 v -4.12846 l 2.917241,-1.36833 c 2.500257,-1.17275 3.504104,-1.39031 7.022988,-1.52211 3.81385,-0.14285 4.274588,-0.067 6.480653,1.0669 1.780286,0.91505 2.700066,1.75318 3.673566,3.34743 1.21637,1.99199 1.30838,2.45067 1.45222,7.23908 l 0.15357,5.11233 -7.716786,-0.0727 c -4.244232,-0.04 -8.494717,-0.13726 -9.445521,-0.21623 z m 20.528737,-1.31472 c 0,-0.91974 0.29812,-2.81684 0.6625,-4.21577 1.37987,-5.29771 4.36581,-9.01516 8.32464,-10.36407 2.84567,-0.96961 7.48391,-0.87749 9.69882,0.19264 2.14015,1.03401 2.05886,1.02548 2.05886,0.21609 0,-0.52559 0.69782,-0.64828 3.68728,-0.64828 h 3.68728 l -0.12176,5.00176 -0.12176,5.00175 -2.16092,0.8784 c -1.18851,0.48312 -2.58539,1.07818 -3.10418,1.32234 -1.28017,0.6025 -2.29778,0.1326 -2.29974,-1.06195 -0.003,-1.56606 -1.61384,-3.79194 -3.23534,-4.46945 -4.55184,-1.90188 -8.34145,0.60663 -9.3838,6.21154 l -0.48911,2.63007 -2.41288,0.2651 c -1.32708,0.14581 -2.94771,0.36568 -3.60139,0.4886 -1.13028,0.21256 -1.1885,0.14159 -1.1885,-1.44877 z m -40.949425,-0.43778 -1.404598,-0.17431 v -3.64617 -3.64618 h -2.377011 -2.377011 v -3.45748 -3.45747 h 2.377011 2.377011 v -3.13543 -3.13543 l 3.457471,-1.11067 3.457471,-1.11066 v 4.24609 4.2461 h 3.457471 3.457471 v 3.45747 3.45748 H 75.78412 72.326649 v 3.88965 3.88965 l -2.052873,-0.0692 c -1.129081,-0.038 -2.684943,-0.14761 -3.457471,-0.24348 z m 76.125885,-9.74427 c 0.59286,-0.77727 1.62379,-1.8168 2.29096,-2.31005 2.25414,-1.66653 6.16609,-3.34862 5.57918,-2.39898 -0.31812,0.51473 -8.26806,6.12227 -8.67968,6.12227 -0.14762,0 0.21668,-0.63596 0.80954,-1.41324 z"
         id="path3779"
         inkscape:connector-curvature="0" />
      <path
         style="fill:#de9cb2;stroke-width:0.43218389"
         d="m 114.89676,154.18363 c -0.9508,-0.21413 -2.45805,-0.71034 -3.34942,-1.10269 l -1.62069,-0.71336 v -3.74504 -3.74505 l 2.91724,1.44429 c 7.64212,3.78354 14.23617,1.76218 15.4102,-4.7239 l 0.29125,-1.60902 -2.13072,1.10546 c -2.84755,1.47736 -6.49383,1.7926 -9.75818,0.84362 -3.28365,-0.95458 -6.22149,-3.80513 -7.53224,-7.30842 -0.93183,-2.49055 -1.20382,-4.82635 -0.60215,-5.17115 0.17827,-0.10217 1.70872,-0.3174 3.40097,-0.47829 l 3.07684,-0.29254 0.49946,1.98354 c 0.28314,1.12443 1.11912,2.6597 1.93012,3.54466 1.23522,1.34786 1.75034,1.5868 3.77083,1.74912 1.93573,0.15551 2.59755,0.0131 3.82944,-0.82438 2.09656,-1.42519 3.1153,-3.40882 3.36809,-6.55817 0.22892,-2.85182 0.33708,-2.9628 3.78632,-3.8853 0.2377,-0.0636 0.85698,-0.34933 1.37618,-0.63503 1.94223,-1.06873 1.94284,-1.06538 1.76305,9.74492 -0.19388,11.65792 -0.46077,12.92399 -3.43727,16.30546 -1.95543,2.22149 -3.45362,3.11841 -6.61691,3.96134 -2.42084,0.64508 -7.74554,0.70151 -10.37241,0.10993 z M 43.013052,141.91725 c -5.608258,-1.75019 -8.570066,-6.24588 -9.034622,-13.71354 -0.19769,-3.17783 -0.07726,-4.25846 0.770646,-6.91495 0.855979,-2.68179 1.397331,-3.5429 3.651907,-5.80895 2.953262,-2.9683 5.478943,-4.03842 9.53138,-4.03842 6.7534,0 10.908131,4.15556 12.048206,12.05063 l 0.273542,1.8943 -1.851087,-0.29697 c -1.018095,-0.16333 -3.309707,-0.49522 -5.092465,-0.73754 -1.782759,-0.24232 -4.213793,-0.59651 -5.402299,-0.7871 -2.050012,-0.32874 -1.977924,-0.34929 1.404598,-0.40044 2.27005,-0.0343 3.565517,-0.22647 3.565517,-0.52883 0,-0.2612 -0.317949,-1.14494 -0.706552,-1.96387 -1.780368,-3.75184 -7.362887,-3.65442 -9.730961,0.16982 -0.746653,1.20578 -1.11457,1.4046 -2.599267,1.4046 -4.279481,0 0.236498,1.64315 6.33793,2.30608 0.713103,0.0775 2.657931,0.36151 4.321839,0.63119 1.663907,0.26967 4.532528,0.71904 6.374712,0.99858 l 3.349425,0.50826 v 1.45151 1.4515 h -9.554899 -9.554896 l 0.282448,1.18851 c 0.697752,2.93606 3.18809,4.92868 6.503364,5.2036 2.877156,0.2386 5.438948,-0.61948 8.245701,-2.76192 l 1.917362,-1.46356 v 3.85155 3.85155 l -1.429426,0.88343 c -3.284325,2.02983 -9.759071,2.77654 -13.622103,1.57098 z m 27.472719,0.05 c -2.03958,-0.76085 -2.663999,-1.28046 -3.855496,-3.20834 -0.794781,-1.28599 -0.983827,-2.35246 -1.139936,-6.43082 l -0.187145,-4.88916 2.539314,0.19612 c 1.396624,0.10787 2.9769,0.2036 3.511727,0.21273 0.910106,0.0156 0.97282,0.20354 0.978784,2.93386 0.0035,1.60448 0.251117,3.40345 0.550244,3.9977 0.773328,1.53629 2.571109,1.62963 4.667473,0.24232 l 1.690855,-1.11895 v 3.61032 c 0,3.51771 -0.03047,3.62436 -1.188506,4.15774 -1.814247,0.83562 -5.712636,0.98836 -7.567314,0.29648 z m 15.911843,-0.0306 c -4.652758,-1.7199 -6.900369,-6.00515 -5.811853,-11.08073 l 0.461602,-2.15238 3.959185,0.28263 c 2.17755,0.15545 4.143939,0.45285 4.369755,0.66089 0.255416,0.23532 0.226252,0.37827 -0.07717,0.37827 -0.943237,0 -1.846043,1.37359 -1.846043,2.8087 0,2.88197 3.79081,4.22123 6.783415,2.39652 1.626105,-0.9915 2.528349,-2.29375 2.932636,-4.23281 l 0.292856,-1.40459 h 3.423143 3.42313 v 6.26666 6.26667 h -3.45748 c -3.215448,0 -3.457471,-0.063 -3.457471,-0.90038 0,-0.49522 -0.145862,-0.82531 -0.324138,-0.73354 -3.878042,1.99624 -7.757636,2.52123 -10.671562,1.44409 z m 62.500486,-0.0194 c -3.83317,-1.19623 -6.63395,-3.96767 -8.08702,-8.0023 -1.42437,-3.95493 -1.21863,-12.06538 0.34347,-13.54 0.29569,-0.27912 1.41278,-1.06841 2.48244,-1.75396 1.06965,-0.68556 3.71773,-2.58143 5.88461,-4.21304 4.295,-3.23402 5.13074,-3.46379 8.40149,-2.3098 5.26231,1.85665 8.16323,7.02598 8.18071,14.57772 l 0.007,2.91722 h -9.51628 -9.51628 l 0.26678,1.18851 c 0.66272,2.95236 3.10732,4.92708 6.4418,5.2036 2.87715,0.2386 5.43894,-0.61948 8.2457,-2.76192 1.05455,-0.80496 1.92662,-1.3676 1.93794,-1.25032 0.0113,0.11728 0.0299,1.8176 0.0411,3.77849 l 0.0206,3.56526 -1.44576,0.95403 c -3.15187,2.07988 -9.75447,2.87407 -13.6881,1.64649 z m 9.86532,-19.28183 c 0,-1.15158 -1.51732,-3.50671 -2.62992,-4.08206 -2.68585,-1.3889 -5.84066,-0.50699 -7.6542,2.13969 -1.61283,2.35377 -1.49023,2.41728 4.66573,2.41728 3.79448,0 5.61839,-0.15417 5.61839,-0.47491 z m 17.32432,19.20722 c -2.34676,-0.86104 -5.15061,-3.59573 -6.38839,-6.23084 -1.30904,-2.78681 -1.92066,-7.72362 -1.40659,-11.35361 0.84583,-5.97261 4.57336,-10.8216 9.39673,-12.22379 3.07672,-0.89442 7.2528,-0.60999 9.36809,0.63806 l 1.52653,0.90068 v -7.33255 -7.332554 h 3.45747 3.45747 v 21.609194 21.60919 h -3.45747 c -3.38184,0 -3.45747,-0.0232 -3.45747,-1.05976 v -1.05977 l -2.16873,1.12518 c -2.76587,1.43498 -7.47094,1.75871 -10.32764,0.71057 z m 9.08303,-6.74269 c 2.3582,-1.56715 3.41334,-4.17042 3.41334,-8.42151 0,-4.15685 -0.60039,-5.93078 -2.5675,-7.58599 -1.11818,-0.94089 -1.8237,-1.16801 -3.62428,-1.16671 -4.66234,0.003 -6.99167,3.1725 -6.98729,9.50643 0.002,2.91921 0.18431,3.98388 0.88774,5.18474 1.9626,3.3505 5.91096,4.45479 8.87799,2.48304 z M 5.5360834,141.58621 c -0.1139163,-0.29712 -0.1564333,-9.48643 -0.094482,-20.42068 l 0.1126392,-19.88046 7.9954014,0.005 c 8.680364,0.005 10.077832,0.26151 13.257051,2.43319 3.872229,2.64506 5.362871,9.21484 3.156024,13.90971 -0.906719,1.92896 -4.348436,5.47775 -5.312477,5.47775 -0.24567,0 -0.03791,0.43759 0.461697,0.97242 0.85085,0.91084 11.343451,17.44711 11.343451,17.87721 0,0.10877 -1.895376,0.1421 -4.211948,0.0741 l -4.211947,-0.1237 -4.323684,-7.09669 c -2.378026,-3.90317 -4.844025,-7.47964 -5.479996,-7.9477 -0.636087,-0.46814 -2.142993,-0.94582 -3.349425,-1.06174 l -2.193113,-0.21074 v 8.26648 8.26648 H 9.2142396 c -2.3782409,0 -3.5362434,-0.17008 -3.6781562,-0.54023 z M 21.08372,117.94734 c 1.710878,-1.12782 2.372555,-2.45323 2.390837,-4.7891 0.02918,-3.72825 -2.013843,-5.17432 -7.310349,-5.17432 h -3.478933 v 5.4023 5.4023 l 3.565517,-0.003 c 2.795874,-0.002 3.839096,-0.18319 4.832928,-0.83833 z m 64.75763,9.93464 c -1.718406,-0.1583 -3.271364,-0.4348 -3.451014,-0.61445 -0.423808,-0.42381 1.338607,-1.83198 3.625106,-2.89647 1.397043,-0.6504 8.687808,-2.10733 10.62155,-2.12253 0.775126,-0.006 0.22735,-2.29954 -0.792911,-3.3198 -1.027841,-1.02784 -1.337094,-1.09939 -3.872453,-0.89587 -2.816824,0.22611 -4.80146,1.13918 -7.867968,3.61984 l -1.404598,1.13625 v -4.08156 -4.08155 l 1.62069,-0.90225 c 5.574709,-3.1035 13.279061,-3.002 16.672538,0.21964 2.39892,2.27746 3.04483,4.17237 3.23522,9.49126 l 0.17403,4.86207 -7.717902,-0.0634 c -4.24485,-0.0349 -9.123877,-0.1929 -10.842288,-0.3512 z m 21.92764,-0.3074 c 0.009,-2.10763 1.01036,-6.63601 1.89564,-8.56997 1.13037,-2.4694 3.57734,-5.04001 6.0965,-6.40454 2.52667,-1.3686 8.80177,-1.36 11.12873,0.0152 1.57479,0.93071 1.62069,0.93377 1.62069,0.10805 0,-0.77412 0.30789,-0.8498 3.45747,-0.8498 h 3.45747 l -0.002,5.07816 -0.002,5.07816 -2.05126,0.78713 c -1.12819,0.43292 -2.38895,0.96775 -2.80171,1.18851 -1.36279,0.72888 -1.95554,0.43869 -2.24392,-1.09855 -0.60251,-3.21161 -3.5468,-5.25916 -7.00238,-4.86966 -3.47496,0.39168 -5.55483,2.84525 -6.06526,7.15507 l -0.25961,2.19194 -2.42768,0.26695 c -1.33524,0.14683 -2.96253,0.36753 -3.6162,0.49045 -0.9456,0.17783 -1.18784,0.0619 -1.18525,-0.56715 z m -40.952685,-1.3194 -1.404598,-0.17431 v -3.86227 -3.86227 h -2.377011 -2.377011 v -3.24138 -3.24138 h 2.358077 2.358077 l 0.12698,-3.09473 0.12698,-3.09474 3.001426,-1.01101 c 1.650783,-0.55606 3.158024,-1.01101 3.349425,-1.01101 0.191397,0 0.347999,1.84759 0.347999,4.10575 v 4.10574 h 3.457471 3.457471 v 3.24138 3.24138 H 75.78412 72.326649 v 4.10575 4.10574 l -2.052873,-0.0692 c -1.129081,-0.038 -2.684943,-0.14761 -3.457471,-0.24348 z m 75.524135,-8.67431 c 0,-0.7039 4.28069,-4.43766 5.82975,-5.0849 1.93284,-0.80759 2.78855,-0.82587 1.93412,-0.0413 -1.4413,1.32343 -7.76387,5.498 -7.76387,5.1262 z"
         id="path3777"
         inkscape:connector-curvature="0" />
      <path
         style="fill:#b1b1b1;stroke-width:0.43218389"
         d="m 114.89676,154.18363 c -0.9508,-0.21413 -2.45805,-0.71034 -3.34942,-1.10269 l -1.62069,-0.71336 v -3.74504 -3.74505 l 2.91724,1.44429 c 7.64212,3.78354 14.23617,1.76218 15.4102,-4.7239 l 0.29125,-1.60902 -2.13072,1.10546 c -4.77701,2.4784 -10.69764,1.67741 -14.31117,-1.93612 -2.26545,-2.26545 -4.03991,-6.19186 -3.81931,-8.45112 l 0.12986,-1.33006 3.32798,-0.12584 3.32797,-0.12584 0.47965,1.78126 c 0.2638,0.97969 1.11658,2.47628 1.89507,3.32576 1.21879,1.32993 1.74053,1.57061 3.7556,1.7325 1.93573,0.15551 2.59755,0.0131 3.82944,-0.82438 2.05004,-1.39356 3.08939,-3.36385 3.36233,-6.37395 0.25481,-2.81006 0.0276,-2.61253 5.23106,-4.54838 l 1.87117,-0.69613 -0.17081,10.27462 c -0.194,11.66924 -0.4604,12.93369 -3.43738,16.31572 -1.95543,2.22149 -3.45362,3.11841 -6.61691,3.96134 -2.42084,0.64508 -7.74554,0.70151 -10.37241,0.10993 z M 43.013052,141.91725 c -5.608258,-1.75019 -8.570066,-6.24588 -9.034622,-13.71354 -0.19769,-3.17783 -0.07726,-4.25846 0.770646,-6.91495 0.855979,-2.68179 1.397331,-3.5429 3.651907,-5.80895 2.070788,-2.08133 3.151975,-2.81041 4.967052,-3.34943 6.324384,-1.87814 12.027711,0.13766 14.799782,5.23087 1.158905,2.12929 2.237494,6.9877 1.682004,7.57644 -0.263771,0.27956 -4.867026,-0.32138 -10.428917,-1.36147 l -1.944828,-0.36368 2.70115,-0.0511 c 2.959435,-0.056 3.07883,-0.20501 1.994597,-2.48987 -1.783683,-3.75882 -7.36322,-3.65393 -9.739172,0.1831 -0.765544,1.23632 -1.079948,1.40235 -2.455205,1.29655 -1.129722,-0.0869 -1.577231,0.0524 -1.577231,0.49093 0,0.77044 1.169623,1.1107 6.050574,1.76018 2.13931,0.28466 5.348276,0.78 7.131034,1.10074 1.782759,0.32075 4.456896,0.71063 5.942528,0.8664 l 2.70115,0.28322 v 1.47021 1.47021 h -9.554899 -9.554896 l 0.282448,1.18851 c 0.697752,2.93606 3.18809,4.92868 6.503364,5.2036 2.877156,0.2386 5.438948,-0.61948 8.245701,-2.76192 l 1.917362,-1.46356 v 3.85155 3.85155 l -1.429426,0.88343 c -3.284325,2.02983 -9.759071,2.77654 -13.622103,1.57098 z m 27.472719,0.05 c -2.03958,-0.76085 -2.663999,-1.28046 -3.855496,-3.20834 -0.796968,-1.28952 -0.983832,-2.35256 -1.142581,-6.49996 l -0.18979,-4.9583 1.677591,0.27712 c 0.922674,0.15241 2.504143,0.27925 3.514373,0.28187 l 1.836781,0.005 0.0064,2.91724 c 0.0035,1.60448 0.251116,3.40345 0.550244,3.9977 0.773328,1.53629 2.571109,1.62963 4.667473,0.24232 l 1.690872,-1.11895 v 3.61032 c 0,3.51771 -0.03047,3.62436 -1.188506,4.15774 -1.814247,0.83562 -5.712636,0.98836 -7.567314,0.29648 z m 15.911843,-0.0306 c -3.875064,-1.43243 -5.917367,-4.28704 -5.983327,-8.36317 -0.0706,-4.36254 -0.01774,-4.41253 4.665404,-4.41253 2.23455,0 4.17089,0.19379 4.318221,0.43218 0.146908,0.2377 0.07504,0.43219 -0.159713,0.43219 -0.887598,0 -1.785114,1.41215 -1.785114,2.80869 0,2.88197 3.79081,4.22123 6.783415,2.39653 1.626105,-0.9915 2.528349,-2.29375 2.932636,-4.23281 l 0.292856,-1.4046 h 3.423138 3.42313 v 6.26667 6.26666 h -3.45748 c -3.215443,0 -3.457466,-0.063 -3.457466,-0.90038 0,-0.49521 -0.145862,-0.8253 -0.324138,-0.73353 -3.878042,1.99624 -7.757636,2.52123 -10.671562,1.44409 z m 62.500486,-0.0194 c -3.83317,-1.19623 -6.63395,-3.96767 -8.08702,-8.0023 -0.95385,-2.64845 -1.27932,-7.90742 -0.67061,-10.83573 0.45558,-2.19166 0.68144,-2.52192 2.51232,-3.67357 1.10645,-0.69597 4.0299,-2.77265 6.49654,-4.61483 4.8495,-3.62179 5.53985,-3.83366 8.77376,-2.69267 5.26231,1.85665 8.16323,7.02598 8.18071,14.57772 l 0.007,2.91722 h -9.51628 -9.51628 l 0.26678,1.18851 c 0.66272,2.95236 3.10732,4.92708 6.4418,5.2036 2.87715,0.2386 5.43894,-0.61948 8.2457,-2.76192 1.05455,-0.80496 1.92662,-1.3676 1.93794,-1.25032 0.0113,0.11728 0.0299,1.8176 0.0411,3.77849 l 0.0206,3.56526 -1.44576,0.95403 c -3.15187,2.07988 -9.75447,2.87407 -13.6881,1.64649 z m 9.86532,-19.28183 c 0,-1.15158 -1.51732,-3.50671 -2.62992,-4.08206 -2.68585,-1.3889 -5.84066,-0.50699 -7.6542,2.13969 -1.61283,2.35377 -1.49023,2.41728 4.66573,2.41728 3.79448,0 5.61839,-0.15417 5.61839,-0.47491 z m 17.32432,19.20722 c -2.34676,-0.86104 -5.15061,-3.59573 -6.38839,-6.23084 -1.30904,-2.78681 -1.92066,-7.72362 -1.40659,-11.35361 0.84583,-5.97261 4.57336,-10.8216 9.39673,-12.22379 3.07672,-0.89442 7.2528,-0.60999 9.36809,0.63806 l 1.52653,0.90068 v -7.33255 -7.332554 h 3.45747 3.45747 v 21.609194 21.60919 h -3.45747 c -3.38184,0 -3.45747,-0.0232 -3.45747,-1.05976 v -1.05977 l -2.16873,1.12518 c -2.76587,1.43498 -7.47094,1.75871 -10.32764,0.71057 z m 9.08303,-6.74269 c 2.3582,-1.56715 3.41334,-4.17042 3.41334,-8.42151 0,-4.15685 -0.60039,-5.93078 -2.5675,-7.58599 -1.11818,-0.94089 -1.8237,-1.16801 -3.62428,-1.16671 -4.66234,0.003 -6.99167,3.1725 -6.98729,9.50643 0.002,2.91921 0.18431,3.98388 0.88774,5.18474 1.9626,3.3505 5.91096,4.45479 8.87799,2.48304 z M 5.5360834,141.58621 c -0.1139163,-0.29712 -0.1564333,-9.48643 -0.094482,-20.42068 l 0.1126392,-19.88046 7.9954014,0.005 c 8.680364,0.005 10.077832,0.26151 13.257051,2.43319 3.872229,2.64506 5.362871,9.21484 3.156024,13.90971 -0.906719,1.92896 -4.348436,5.47775 -5.312477,5.47775 -0.24567,0 -0.03791,0.43759 0.461697,0.97242 0.85085,0.91084 11.343451,17.44711 11.343451,17.87721 0,0.10877 -1.895376,0.1421 -4.211948,0.0741 l -4.211947,-0.1237 -4.323684,-7.09669 c -2.378026,-3.90317 -4.844025,-7.47964 -5.479996,-7.9477 -0.636087,-0.46814 -2.142993,-0.94582 -3.349425,-1.06174 l -2.193113,-0.21074 v 8.26648 8.26648 H 9.2142396 c -2.3782409,0 -3.5362434,-0.17008 -3.6781562,-0.54023 z M 21.08372,117.94734 c 1.710878,-1.12782 2.372555,-2.45323 2.390837,-4.7891 0.02918,-3.72825 -2.013843,-5.17432 -7.310349,-5.17432 h -3.478933 v 5.4023 5.4023 l 3.565517,-0.003 c 2.795874,-0.002 3.839096,-0.18319 4.832928,-0.83833 z m 64.718297,9.90001 c -1.740041,-0.18252 -3.292995,-0.46114 -3.451014,-0.61915 -0.388931,-0.38894 1.461015,-1.83133 3.664439,-2.85714 1.397043,-0.6504 8.687808,-2.10733 10.62155,-2.12253 0.775126,-0.006 0.22735,-2.29954 -0.792911,-3.3198 -1.027841,-1.02784 -1.337094,-1.09939 -3.872453,-0.89587 -2.816824,0.22611 -4.80146,1.13918 -7.867968,3.61984 l -1.404598,1.13625 v -4.08156 -4.08155 l 1.62069,-0.90225 c 5.574709,-3.1035 13.279061,-3.002 16.672538,0.21964 2.39892,2.27746 3.04483,4.17237 3.23522,9.49126 l 0.17403,4.86207 -7.717902,-0.0587 c -4.24485,-0.0323 -9.14158,-0.20802 -10.881621,-0.39053 z m 22.184443,0.0245 c -0.47573,-0.76975 0.61989,-6.57039 1.67484,-8.86729 1.13487,-2.47089 3.58289,-5.04121 6.09983,-6.40454 2.52667,-1.3686 8.80177,-1.36 11.12873,0.0153 1.57479,0.93071 1.62069,0.93377 1.62069,0.10804 0,-0.77412 0.30789,-0.8498 3.45747,-0.8498 h 3.45747 v 4.94984 4.94984 l -1.40459,0.6577 c -1.22785,0.57494 -4.98607,1.97596 -5.3005,1.97596 -0.0625,0 -0.24027,-0.67497 -0.39504,-1.49993 -0.6025,-3.21161 -3.54679,-5.25916 -7.00238,-4.86966 -3.47146,0.39128 -5.55485,2.84546 -6.06383,7.14306 l -0.25818,2.17993 -2.64521,0.28313 c -1.45486,0.15572 -2.96918,0.37429 -3.36516,0.48571 -0.39597,0.11141 -0.84783,-0.004 -1.00414,-0.25726 z m -40.089696,-1.62345 -2.485057,-0.15595 v -3.86808 -3.86809 h -2.377011 -2.377011 v -3.24138 -3.24138 h 2.358077 2.358077 l 0.12698,-3.09473 0.12698,-3.09474 3.001426,-1.01101 c 1.650783,-0.55606 3.158024,-1.01101 3.349425,-1.01101 0.191397,0 0.347999,1.84759 0.347999,4.10575 v 4.10574 h 3.457471 3.457471 v 3.24138 3.24138 H 75.78412 72.326649 v 4.10575 c 0,3.9939 -0.02649,4.10352 -0.972414,4.02403 -0.534827,-0.045 -2.090689,-0.1519 -3.457471,-0.23766 z m 74.443676,-8.64443 c 0,-1.26466 6.89945,-6.32218 7.62919,-5.59244 0.10375,0.10375 -1.32727,1.31464 -3.18005,2.69087 -1.85278,1.37623 -3.61179,2.68793 -3.90891,2.91488 -0.34589,0.26421 -0.54023,0.25942 -0.54023,-0.0133 z"
         id="path3775"
         inkscape:connector-curvature="0" />
      <path
         style="fill:#908f8f;stroke-width:0.43218389"
         d="m 115.32894,154.17333 c -0.9508,-0.21978 -2.55528,-0.71288 -3.56551,-1.09576 l -1.83678,-0.69615 v -3.61484 c 0,-1.98817 0.0754,-3.61485 0.16757,-3.61485 0.0922,0 1.50216,0.62669 3.13333,1.39264 5.07386,2.38253 10.367,2.16032 13.07627,-0.54895 1.10706,-1.10706 2.64498,-5.30352 2.13174,-5.81677 -0.0948,-0.0948 -1.23502,0.35326 -2.53376,0.99574 -1.9465,0.96292 -2.93083,1.16538 -5.60274,1.15238 -2.75987,-0.0134 -3.58954,-0.20603 -5.58507,-1.29655 -3.56713,-1.94938 -6.01105,-5.7631 -6.2032,-9.68004 l -0.0968,-1.97316 3.27597,-0.1249 3.27596,-0.12491 0.55444,1.85364 c 1.1686,3.90698 3.19244,5.35741 6.96905,4.99453 3.67814,-0.35342 6.02113,-3.46671 6.02113,-8.00067 0,-1.54892 0.15007,-1.79644 1.4046,-2.31674 0.77253,-0.3204 1.59908,-0.61786 1.83678,-0.66103 0.2377,-0.0432 1.1615,-0.39069 2.05288,-0.77225 l 1.62068,-0.69375 v 8.8443 c 0,4.90238 -0.21658,9.86505 -0.48593,11.13453 -1.27988,6.03207 -4.84638,9.59807 -10.71197,10.71045 -2.76421,0.52422 -6.51349,0.50447 -8.89865,-0.0469 z m -71.895663,-12.2941 c -5.399227,-1.45247 -8.849312,-6.13033 -9.408174,-12.75624 -0.632033,-7.49342 2.27987,-13.38279 8.137247,-16.45772 1.496769,-0.78575 2.567686,-0.97638 5.529818,-0.98434 3.273728,-0.009 3.92754,0.13005 6.007028,1.27564 3.642748,2.00679 6.437517,7.04806 6.018925,10.85709 l -0.140896,1.2821 -5.186207,-0.72372 c -6.759463,-0.94325 -7.481673,-1.1509 -4.213792,-1.21155 2.988166,-0.0555 3.230319,-0.36631 2.055341,-2.63847 -0.937424,-1.81277 -2.30721,-2.59809 -4.528518,-2.59626 -2.364417,0.002 -4.454912,1.16866 -5.41271,3.02083 -0.605465,1.17084 -0.88243,1.3169 -2.289947,1.20762 -1.885046,-0.14636 -2.275449,0.90865 -0.520717,1.40716 1.292889,0.3673 7.724504,1.40002 8.643677,1.38791 0.356552,-0.005 1.912414,0.2398 3.457471,0.54335 1.545058,0.30354 4.133035,0.6863 5.751058,0.85058 l 2.941858,0.29869 -0.132663,1.36756 -0.132667,1.36756 -9.444705,0.1166 -9.444705,0.1166 0.290829,1.17995 c 0.493014,2.00026 1.675068,3.63758 3.256053,4.51012 1.211978,0.66889 2.126371,0.79947 4.600291,0.65695 3.043192,-0.17531 4.415588,-0.73283 7.824996,-3.17882 l 0.972413,-0.69763 v 3.75018 3.75019 l -2.300584,1.05324 c -4.200823,1.9232 -8.278706,2.33488 -12.33072,1.24483 z m 28.21512,0.29405 c -4.459407,-1.13598 -5.90425,-3.51393 -6.15642,-10.13234 l -0.17844,-4.68321 2.534144,0.32766 c 1.393776,0.18022 2.923106,0.34284 3.398508,0.36137 0.773013,0.0301 0.888471,0.41298 1.092414,3.62238 0.158508,2.49432 0.422093,3.71138 0.864368,3.99108 1.056115,0.66789 3.162778,0.44856 4.309885,-0.44872 0.594252,-0.46483 1.226321,-0.84947 1.404597,-0.85475 0.178276,-0.005 0.324138,1.51503 0.324138,3.37848 0,3.17979 -0.06536,3.41788 -1.06306,3.87246 -1.473086,0.67119 -4.937631,0.97126 -6.530134,0.56559 z m 15.087154,-0.2089 c -4.081639,-1.33529 -6.20221,-4.24994 -6.191509,-8.51002 0.01085,-4.32145 -0.01716,-4.29343 4.294313,-4.29343 2.071972,0 3.88067,0.11345 4.019327,0.2521 0.138658,0.13867 -0.120653,0.62487 -0.576243,1.08046 -1.152795,1.1528 -1.092272,3.5741 0.117506,4.70117 0.678174,0.63182 1.530099,0.88121 3.010251,0.88121 2.684982,0 4.913892,-1.81103 5.659388,-4.59835 l 0.504004,-1.88441 h 3.367832 3.36784 v 6.05058 6.05057 h -3.45748 c -3.127299,0 -3.457466,-0.0796 -3.457466,-0.83394 0,-0.79071 -0.09738,-0.77952 -1.878094,0.21574 -2.344395,1.31031 -6.274307,1.70793 -8.779669,0.88832 z m 63.269439,0.12401 c -3.75075,-0.88366 -6.73898,-3.27006 -8.50157,-6.78933 -1.42683,-2.84889 -2.03204,-7.96171 -1.37658,-11.62945 0.5206,-2.91311 0.60555,-3.05607 2.53816,-4.27168 1.09974,-0.69173 4.05189,-2.79052 6.56033,-4.66397 l 4.5608,-3.40628 2.50953,0.46669 c 6.2268,1.158 9.21886,5.54664 9.48283,13.90909 l 0.11597,3.67356 -9.44471,0.1166 -9.4447,0.1166 0.29083,1.17995 c 0.49301,2.00026 1.67507,3.63758 3.25605,4.51012 1.21198,0.66889 2.12637,0.79947 4.60029,0.65695 3.04319,-0.17531 4.41559,-0.73283 7.825,-3.17882 l 0.97241,-0.69763 v 3.75018 3.75019 l -2.30058,1.05324 c -3.8614,1.76781 -8.07747,2.29427 -11.64406,1.45399 z m 8.75843,-19.64777 c 0,-1.05777 -1.20065,-3.10374 -2.25461,-3.84196 -1.23385,-0.86422 -4.33115,-0.86694 -5.99745,-0.005 -1.27872,0.66125 -2.97997,2.92916 -2.9831,3.97672 -10e-4,0.40456 1.40932,0.54023 5.61677,0.54023 4.78602,0 5.61839,-0.0992 5.61839,-0.66974 z m 18.97173,19.73956 c -4.18018,-0.88369 -7.47191,-4.24876 -8.87974,-9.07754 -1.05217,-3.60895 -0.66505,-10.36091 0.77228,-13.46948 1.46403,-3.16631 3.26995,-5.15649 6.05418,-6.67185 1.95575,-1.06445 2.78238,-1.24732 5.75619,-1.27339 2.71891,-0.0238 3.8711,0.16882 5.30927,0.88775 l 1.83678,0.91819 v -7.2929 -7.292904 h 3.45747 3.45747 v 21.393104 21.3931 h -3.45747 c -3.16935,0 -3.45747,-0.072 -3.45747,-0.86437 0,-1.07652 0.0679,-1.08301 -2.25584,0.21574 -2.1151,1.18216 -5.96407,1.69034 -8.59312,1.13455 z m 7.34456,-6.79361 c 0.6418,-0.37912 1.64422,-1.38513 2.2276,-2.23559 0.92323,-1.34587 1.07967,-2.11985 1.20701,-5.97167 0.11537,-3.49009 -0.009,-4.75165 -0.58625,-5.96909 -1.93954,-4.0873 -8.26639,-4.55475 -10.92981,-0.80754 -1.72508,2.42706 -2.31275,7.15271 -1.3298,10.69333 0.26569,0.95702 1.19995,2.44171 2.10767,3.34942 1.46879,1.46881 1.85379,1.63044 3.88356,1.63044 1.2865,0 2.75374,-0.29572 3.42002,-0.6893 z M 5.7703327,121.38162 v -20.31264 l 5.9425283,0.009 c 10.336822,0.0149 13.729549,0.90505 16.706946,4.38347 1.945768,2.27319 2.572176,4.50215 2.309238,8.21701 -0.251556,3.55404 -1.748545,6.33784 -4.421254,8.22174 l -1.856237,1.30839 1.843872,2.65225 c 2.007049,2.88697 9.727778,15.28903 9.727778,15.62605 0,0.11429 -1.824175,0.20781 -4.053723,0.20781 h -4.053723 l -3.994837,-6.70075 c -4.762999,-7.98923 -6.035775,-9.29005 -9.089765,-9.29005 h -2.145881 v 7.9954 7.9954 H 9.2278037 5.7703327 Z m 14.9958933,-3.17387 c 3.800483,-1.96531 4.071276,-7.77913 0.442535,-9.50108 -1.034024,-0.49068 -2.646992,-0.72275 -5.023285,-0.72275 h -3.500201 v 5.68014 5.68015 l 3.391107,-0.23243 c 1.86511,-0.12784 3.975539,-0.53465 4.689844,-0.90403 z m 66.686859,9.80676 c -0.831954,-0.0843 -2.387816,-0.27014 -3.457471,-0.41297 l -1.944828,-0.25969 1.644693,-1.42598 c 1.77424,-1.5383 4.663614,-2.45608 10.222216,-3.247 1.772775,-0.25224 3.297775,-0.53316 3.388884,-0.62427 0.29602,-0.29602 -0.359992,-1.86145 -1.258999,-3.00435 -0.761867,-0.96856 -1.202284,-1.11485 -3.331611,-1.10661 -2.760665,0.0107 -5.299659,0.99114 -7.900092,3.05073 l -1.684631,1.33425 v -3.88328 -3.88329 l 1.570716,-0.92674 c 2.377906,-1.403 6.842119,-2.31149 9.972263,-2.02941 6.749705,0.60826 9.828005,4.76121 9.544155,12.87607 l -0.12622,3.6085 -7.563214,0.0437 c -4.15977,0.024 -8.243907,-0.0253 -9.075861,-0.10962 z m 20.837495,-2.93315 c 0.35858,-5.5874 3.63667,-10.7558 8.03688,-12.67132 2.53265,-1.10252 8.06014,-0.98877 10.34631,0.21292 1.47825,0.77702 1.83678,0.84029 1.83678,0.32414 0,-0.51356 0.68891,-0.64134 3.45747,-0.64134 h 3.45747 v 4.73374 4.73375 l -1.40459,0.6577 c -1.32185,0.61895 -4.99503,1.97596 -5.34859,1.97596 -0.089,0 -0.16176,-0.39863 -0.16176,-0.88583 0,-1.31846 -1.09316,-3.18804 -2.61074,-4.46499 -1.07919,-0.90809 -1.79612,-1.13194 -3.62517,-1.13194 -4.02222,0 -6.6201,2.72608 -7.07113,7.42009 -0.16928,1.76172 -0.34397,2.09365 -1.11806,2.12442 -0.50458,0.02 -2.05898,0.17873 -3.45421,0.35261 l -2.53679,0.31613 z m -40.393816,1.16709 -2.485057,-0.15595 v -3.86808 -3.86809 h -2.377011 -2.377011 v -3.02529 -3.02528 h 2.377011 2.377011 v -3.20615 -3.20614 l 2.917241,-0.96284 c 1.604483,-0.52957 3.160345,-1.05244 3.457471,-1.16194 0.40968,-0.15098 0.54023,0.85647 0.54023,4.16899 v 4.36808 h 3.457471 3.457471 v 3.02528 3.02529 H 75.78412 72.326649 v 4.10575 c 0,3.9939 -0.02649,4.10352 -0.972414,4.02403 -0.534827,-0.045 -2.090689,-0.1519 -3.457471,-0.23766 z m 74.788586,-9.02135 c 0.68258,-1.28137 3.24637,-3.455 5.32737,-4.51666 2.85355,-1.45577 2.37981,-0.68423 -1.22314,1.99201 -1.85278,1.37623 -3.64363,2.71273 -3.97967,2.97001 -0.51097,0.3912 -0.53136,0.3183 -0.12456,-0.44536 z"
         id="path3773"
         inkscape:connector-curvature="0" />
      <path
         style="fill:#917d84;stroke-width:0.43218389"
         d="m 116.6255,154.38907 c -0.71311,-0.10666 -2.51207,-0.61156 -3.9977,-1.122 l -2.70115,-0.92806 v -3.62965 c 0,-1.99632 0.14586,-3.55501 0.32413,-3.46378 3.94827,2.02053 5.83535,2.63825 8.6479,2.83083 4.07204,0.27881 6.63039,-0.62451 8.10375,-2.86133 1.03667,-1.57383 1.99214,-5.53601 1.24841,-5.17694 -4.16606,2.01134 -4.78596,2.18915 -7.69481,2.20717 -5.03915,0.0312 -8.24309,-1.89013 -10.70494,-6.41956 -0.69557,-1.27974 -1.21199,-2.98759 -1.29655,-4.28781 l -0.14054,-2.16092 3.34943,-0.12622 c 3.23855,-0.12205 3.34966,-0.0934 3.35653,0.86436 0.0112,1.55466 1.79541,4.3165 3.39041,5.24803 4.61231,2.69374 10.00018,-1.04577 10.00018,-6.94075 0,-2.29364 0.0372,-2.33888 2.59311,-3.15328 0.59425,-0.18934 1.82809,-0.66556 2.74188,-1.05826 l 1.66142,-0.714 -0.17352,10.07109 c -0.16,9.28636 -0.25176,10.27002 -1.17761,12.62394 -1.30176,3.30968 -3.89565,5.91361 -7.07622,7.10361 -2.41007,0.90172 -7.89835,1.47581 -10.45411,1.09353 z M 44.632501,142.12198 c -5.927972,-1.00333 -9.85605,-5.84504 -10.585121,-13.04712 -0.713741,-7.05065 2.451435,-13.51791 7.926989,-16.19685 2.053239,-1.00455 3.020337,-1.20651 5.715306,-1.19351 6.715666,0.0324 11.150032,4.0283 11.941283,10.76059 l 0.281365,2.394 h -1.41427 c -1.343906,0 -4.062472,-0.38031 -8.861057,-1.2396 l -2.16092,-0.38695 2.70115,-0.0511 c 3.081311,-0.0583 3.348547,-0.49657 1.825704,-2.99433 -1.075247,-1.76362 -3.472952,-2.84744 -5.470328,-2.47273 -1.616416,0.30324 -4.270928,2.41438 -4.687965,3.72835 -0.21463,0.67624 -0.595086,0.82694 -1.84217,0.72971 -1.1784,-0.0919 -1.608445,0.0562 -1.718616,0.5918 -0.14716,0.71542 0.577674,0.94525 4.563579,1.44699 0.782063,0.0984 2.532408,0.36959 3.889655,0.60254 3.051257,0.5237 7.780235,1.21659 10.787266,1.58054 2.153672,0.26067 2.268966,0.33845 2.268966,1.53062 v 1.256 h -9.3485 -9.348503 l 0.246135,1.51675 c 0.994265,6.12694 8.804718,7.44485 15.202289,2.56519 l 1.519843,-1.15925 v 3.65419 3.65419 l -2.272703,1.14989 c -1.810885,0.91622 -7.630665,2.18389 -8.964077,1.95256 -0.118851,-0.0206 -1.106737,-0.18823 -2.1953,-0.37247 z m 43.468859,0.002 c -4.818785,-0.84275 -7.569475,-4.02103 -7.557318,-8.73208 0.01098,-4.2514 -0.0097,-4.23102 4.294313,-4.23102 4.086579,0 4.805919,0.24298 3.476349,1.17425 -0.944767,0.66174 -1.18045,3.04087 -0.438559,4.4271 0.95421,1.78296 4.851502,1.96534 6.977406,0.32653 1.073384,-0.82745 2.53634,-3.43461 2.538146,-4.52328 0.0017,-0.92726 0.162164,-0.97241 3.459083,-0.97241 h 3.45748 v 6.05057 6.05058 h -3.45748 c -3.127299,0 -3.457466,-0.0796 -3.457466,-0.83394 0,-0.79801 -0.07915,-0.79093 -1.836782,0.16443 -2.076708,1.1288 -4.903247,1.54557 -7.455172,1.09927 z m 62.3307,-0.0191 c -6.36644,-1.05585 -10.28703,-6.50876 -10.39418,-14.45675 -0.0823,-6.1049 0.0153,-6.2565 7.48898,-11.62627 l 6.46551,-4.64544 2.32779,0.48325 c 6.08873,1.26401 9.35821,6.03035 9.35821,13.64265 v 3.65846 h -9.3485 -9.3485 l 0.25198,1.55282 c 0.62994,3.88186 4.81045,6.33532 9.14117,5.36479 2.32281,-0.52056 4.13608,-1.38075 6.17051,-2.92721 l 1.4046,-1.06771 v 3.71608 3.71607 l -1.62312,0.82806 c -3.16618,1.61526 -8.24195,2.36678 -11.89445,1.76109 z m 8.17037,-20.39927 c -0.3358,-1.75309 -2.36265,-3.64834 -4.28796,-4.00953 -1.95938,-0.36758 -4.24138,0.63363 -5.58649,2.45103 -2.22761,3.00978 -2.29487,2.96309 4.26855,2.96309 h 5.87494 z m 19.80865,20.38118 c -2.79794,-0.35464 -4.42292,-1.21337 -6.36603,-3.36417 -2.97105,-3.2886 -4.01381,-6.87604 -3.67477,-12.64241 0.38254,-6.50611 2.90192,-10.91304 7.5346,-13.1796 3.21882,-1.57482 8.02906,-1.6754 10.84245,-0.2267 l 1.83678,0.94582 v -7.35591 -7.355914 h 3.45747 3.45747 v 21.393104 21.3931 h -3.45747 c -3.45367,0 -3.45747,-0.001 -3.45747,-1.14744 0,-1.05601 -0.0603,-1.09487 -0.75632,-0.48772 -1.99915,1.74382 -5.5777,2.51444 -9.41671,2.02784 z m 7.32419,-7.02581 c 1.96858,-1.28986 2.84884,-3.99213 2.84884,-8.74552 0,-3.86315 -0.10883,-4.46132 -1.0687,-5.87389 -1.34984,-1.98647 -4.21991,-3.1889 -6.56256,-2.74941 -2.18458,0.40983 -4.66464,2.93327 -5.34029,5.43371 -0.77039,2.85101 -0.3606,8.15153 0.77064,9.96794 1.98972,3.19486 6.14455,4.06882 9.35207,1.96717 z m -115.785632,6.56214 c -1.868456,-1.03086 -3.290432,-2.80005 -3.899816,-4.85206 -0.74298,-2.50189 -0.875591,-9.33902 -0.181137,-9.33902 0.251341,0 1.807203,0.22299 3.457471,0.49552 l 3.000493,0.49552 v 2.99037 c 0,1.6447 0.201324,3.36654 0.447388,3.82631 0.61358,1.14649 3.38371,1.13029 4.856749,-0.0284 0.604374,-0.4754 1.165431,-0.86445 1.24679,-0.86456 0.08136,-1e-4 0.120484,1.50714 0.08695,3.34943 -0.05552,3.04976 -0.152241,3.3974 -1.080459,3.88347 -1.261791,0.66075 -6.760973,0.69085 -7.934425,0.0434 z M 5.7703327,121.59771 v -20.09655 h 7.7296803 c 8.779435,0 11.02191,0.46346 13.816449,2.85548 2.518132,2.15543 3.671186,5.21197 3.4233,9.07456 -0.244135,3.80414 -1.677308,6.52689 -4.47272,8.49728 l -1.896985,1.33712 1.007672,1.32697 c 1.03934,1.36868 10.645475,16.65622 10.645475,16.94158 0,0.0881 -1.799963,0.16011 -3.999918,0.16011 h -3.999918 l -3.989606,-6.5908 c -2.194284,-3.62495 -4.235355,-6.89146 -4.535714,-7.25892 -1.180729,-1.44451 -2.725443,-2.14108 -4.748018,-2.14108 h -2.064755 v 7.9954 7.9954 H 9.2278037 5.7703327 Z M 20.641808,118.3426 c 3.896609,-1.96597 4.320541,-7.8315 0.701291,-9.70309 -0.843176,-0.43602 -2.505298,-0.65559 -4.962799,-0.65559 h -3.695025 v 5.66415 5.66415 l 3.349425,-0.16754 c 1.842183,-0.0921 3.915382,-0.45309 4.607108,-0.80208 z m 62.564534,9.1528 -1.005359,-0.28281 1.010744,-0.94955 c 1.570582,-1.47548 4.566135,-2.59992 8.347104,-3.13323 6.05003,-0.85336 5.945273,-0.81396 5.622587,-2.11463 -0.383183,-1.54452 -1.799423,-2.9895 -3.240212,-3.30595 -2.382569,-0.5233 -7.087569,1.29466 -9.837546,3.80112 l -0.972414,0.88631 v -3.9889 -3.9889 l 2.379898,-1.08956 c 5.906208,-2.70395 13.46831,-2.02597 16.205106,1.45288 1.61384,2.0514 2.16761,3.99908 2.45019,8.61764 l 0.27317,4.46456 -10.11395,-0.0431 c -5.562678,-0.0237 -10.566369,-0.17035 -11.119318,-0.3259 z m 25.121298,-2.67379 c 0.46345,-5.52805 3.47076,-10.22251 7.76124,-12.11541 3.1054,-1.37006 7.95321,-1.3842 10.58489,-0.0309 1.51754,0.78038 1.83678,0.83035 1.83678,0.28749 0,-0.53343 0.65324,-0.65706 3.47163,-0.65706 h 3.47162 l -0.1222,4.79442 -0.1222,4.79443 -2.49339,1.01358 c -4.07012,1.65452 -4.20546,1.67532 -4.20546,0.64625 0,-1.91983 -1.63472,-4.21112 -3.72708,-5.22402 -1.84077,-0.8911 -2.20983,-0.93257 -4.01215,-0.45088 -1.0917,0.29177 -2.44815,0.956 -3.01433,1.47606 -1.44807,1.3301 -2.62347,4.08767 -2.63465,6.18107 l -0.009,1.77803 -2.00515,0.27484 c -1.10282,0.15116 -2.68688,0.27484 -3.52014,0.27484 h -1.515 z m -39.890646,1.26658 c -1.069655,-0.21172 -2.187931,-0.29375 -2.485057,-0.18231 -0.407087,0.15269 -0.54023,-0.75264 -0.54023,-3.67346 v -3.87609 l -2.268965,0.001 -2.268966,9.9e-4 0.143511,-3.02626 0.143511,-3.0263 h 2.125455 2.125454 v -3.22308 -3.22308 l 2.917241,-0.91131 c 1.604483,-0.50122 3.160345,-1.01187 3.457471,-1.13477 0.411241,-0.17011 0.54023,0.81704 0.54023,4.13438 v 4.35786 h 3.349425 3.349425 v 3.02528 3.02529 h -3.349425 -3.349425 v 4.10575 c 0,4.6394 0.215383,4.4386 -3.889655,3.62611 z m 74.729796,-9.4072 c 1.22821,-1.72488 3.29291,-3.29858 5.46358,-4.16433 l 1.70547,-0.68022 -1.08046,0.89299 c -0.59425,0.49114 -2.42389,1.88535 -4.06586,3.09824 -2.68743,1.98515 -2.88932,2.07032 -2.02273,0.85332 z"
         id="path3771"
         inkscape:connector-curvature="0" />
      <path
         style="fill:#6e6e6e;stroke-width:0.43218389"
         d="m 117.92205,154.34518 c -2.16331,-0.15805 -5.24946,-0.93271 -6.8069,-1.7086 -1.14769,-0.57177 -1.1885,-0.71046 -1.1885,-4.03848 0,-1.8955 0.0861,-3.44637 0.19138,-3.44637 0.10527,0 0.83858,0.38185 1.62959,0.84856 5.13672,3.03073 12.08377,3.03722 14.81991,0.0138 0.91265,-1.00848 1.89906,-3.72444 1.92405,-5.29769 l 0.019,-1.19393 -1.83678,1.18304 c -1.54148,0.99284 -2.41549,1.20952 -5.43627,1.34772 -4.54197,0.2078 -6.68857,-0.54797 -9.15435,-3.22304 -1.99893,-2.16858 -3.21536,-4.62534 -3.66416,-7.40032 l -0.29706,-1.83678 h 1.49031 c 0.81967,0 2.39263,-0.12368 3.49546,-0.27484 1.85523,-0.25429 2.00515,-0.20453 2.00515,0.66549 0,1.18051 1.37885,3.92172 2.43907,4.84896 1.47009,1.28571 3.79255,1.77627 5.82213,1.22976 3.19171,-0.85944 5.06492,-3.67419 5.26119,-7.90563 0.0725,-1.56264 0.27038,-2.01815 0.95577,-2.19984 0.4754,-0.12603 0.90903,-0.24359 0.96361,-0.26124 0.0546,-0.0177 1.19591,-0.5171 2.53626,-1.10986 l 2.43701,-1.07777 -0.20962,9.84938 c -0.17568,8.25431 -0.3451,10.23833 -1.04612,12.25112 -2.24852,6.45593 -7.69936,9.36854 -16.35011,8.73653 z M 41.857686,141.34297 c -5.159628,-2.42235 -7.654597,-6.97018 -7.663886,-13.96972 -0.0057,-4.29585 0.73919,-7.07658 2.653276,-9.90486 2.991425,-4.42018 8.202431,-6.61914 13.329882,-5.62498 2.99656,0.581 4.386294,1.34331 6.289589,3.45003 1.921403,2.12676 2.730071,3.9727 3.124966,7.13335 l 0.300298,2.40348 -2.534304,-0.21345 c -1.393867,-0.1174 -3.60396,-0.40597 -4.911316,-0.64126 -1.307356,-0.23529 -2.96046,-0.49708 -3.673563,-0.58175 -0.713103,-0.0847 -0.05672,-0.18309 1.458621,-0.2187 l 2.755172,-0.0648 -0.276766,-1.38382 c -0.537888,-2.68945 -3.358882,-4.56084 -6.099986,-4.04661 -1.681187,0.3154 -4.340073,2.40388 -4.765032,3.74281 -0.21463,0.67624 -0.595086,0.82694 -1.84217,0.72971 -1.183364,-0.0923 -1.608275,0.0555 -1.719807,0.59799 -0.115753,0.56304 0.353234,0.81199 2.145631,1.13898 3.55096,0.6478 8.579808,1.41943 10.665527,1.63654 1.038958,0.10814 2.692061,0.38205 3.673563,0.60868 0.981507,0.22664 2.513867,0.41682 3.405246,0.42263 1.510297,0.01 1.62069,0.0989 1.62069,1.30712 v 1.29655 H 50.501364 41.20941 v 1.23264 c 0,1.60785 1.57165,3.90326 3.406111,4.97464 2.971143,1.73525 8.055298,0.82944 11.929217,-2.12534 l 1.519843,-1.15925 v 3.65474 3.65472 l -2.485057,1.24015 c -2.200624,1.0982 -3.029194,1.25624 -7.23908,1.38075 -3.949607,0.11681 -5.046537,0.003 -6.482758,-0.67101 z m 27.439281,-0.18894 c -2.058976,-1.40133 -2.953567,-2.81786 -3.448975,-5.46129 -0.580708,-3.09857 -0.567777,-8.26055 0.02069,-8.26055 0.251341,0 1.807203,0.22299 3.457471,0.49552 l 3.000493,0.49552 v 3.09544 c 0,1.926 0.221806,3.39878 0.5871,3.89835 0.803084,1.09828 3.023412,1.02778 4.61161,-0.14643 l 1.284048,-0.94933 v 3.40104 c 0,3.22512 -0.05694,3.42697 -1.100794,3.90259 -0.605437,0.27586 -2.424262,0.50155 -4.041835,0.50155 -2.338504,0 -3.233756,-0.19921 -4.369811,-0.97241 z m 16.21129,0.25549 c -3.556899,-1.87185 -5.195178,-4.955 -4.888172,-9.1993 0.103395,-1.42941 0.292692,-2.70362 0.420662,-2.83159 0.127965,-0.12797 1.918723,-0.10307 3.979458,0.0553 3.472857,0.26695 3.698759,0.34108 3.089834,1.01393 -0.367577,0.40617 -0.656954,1.52281 -0.656954,2.53503 0,1.57725 0.180017,1.91886 1.404597,2.6655 1.781778,1.08638 2.625833,1.07781 4.956164,-0.0503 1.931097,-0.93482 3.579468,-3.29421 3.579468,-5.12343 0,-0.81149 0.266316,-0.88159 3.349426,-0.88159 h 3.34942 v 6.05058 6.05057 h -3.34942 c -3.045372,0 -3.349426,-0.0774 -3.349426,-0.85221 0,-0.81716 -0.08262,-0.80828 -2.009197,0.21609 -1.642519,0.87334 -2.608718,1.06515 -5.294253,1.051 -2.127425,-0.0112 -3.741951,-0.25775 -4.581607,-0.69962 z m 61.868413,-0.31253 c -2.82175,-1.4145 -4.4055,-3.0165 -5.80007,-5.8669 -0.98603,-2.01538 -1.19251,-3.08068 -1.33307,-6.87767 -0.23355,-6.30922 0.1262,-7.24824 3.71554,-9.69835 1.60561,-1.096 3.63705,-2.53515 4.51431,-3.19811 5.46705,-4.13155 5.27521,-4.04166 7.66027,-3.58934 2.91635,0.55307 4.32114,1.32728 6.21795,3.42682 2.34665,2.59746 2.96821,4.41989 3.21882,9.4376 l 0.22125,4.42989 h -9.34861 -9.3486 l 0.002,1.1885 c 0.002,1.4806 1.33575,3.72135 2.77719,4.66581 3.04984,1.99834 7.55599,1.56546 11.59131,-1.11348 l 2.48505,-1.64977 v 3.57055 3.57054 l -2.48505,1.24015 c -2.20298,1.09937 -3.02471,1.25568 -7.23908,1.377 -4.32463,0.1245 -4.94324,0.042 -6.84883,-0.91324 z m 11.30441,-19.39123 c -1.37688,-4.11856 -5.7199,-5.3894 -8.99632,-2.63248 -1.1501,0.96775 -2.5903,3.08027 -2.5903,3.79952 0,0.13065 2.71264,0.23755 6.02809,0.23755 h 6.02809 z m 16.60802,19.50816 c -4.37216,-2.16418 -7.01763,-7.3184 -7.01763,-13.67261 0,-6.25404 2.57483,-11.76157 6.60146,-14.12048 3.34058,-1.957 9.08894,-2.18658 12.36253,-0.49374 l 1.3277,0.68658 0.11852,-7.24476 0.11852,-7.244762 3.34943,-0.126225 3.34942,-0.126226 v 21.411283 21.41128 h -3.45747 c -3.45367,0 -3.45747,-0.001 -3.45747,-1.14744 0,-1.07438 -0.0492,-1.10295 -0.77214,-0.44867 -2.43804,2.2064 -9.11727,2.80151 -12.52287,1.11577 z m 8.58454,-5.19925 c 3.53561,-1.18741 4.71047,-3.54464 4.71047,-9.45109 0,-3.00456 -0.1989,-4.74516 -0.63964,-5.59745 -2.06136,-3.98622 -7.50203,-4.55626 -10.53348,-1.10363 -1.58767,1.80826 -2.21976,3.90223 -2.21976,7.3536 0,4.92713 1.35988,7.51976 4.53311,8.64241 2.14236,0.75794 2.33578,0.76522 4.1493,0.15616 z M 5.7703327,121.55863 V 101.423 l 8.5356313,0.17457 c 9.189512,0.18795 10.263395,0.41451 13.040339,2.75115 2.359432,1.98533 3.259231,4.2394 3.262617,8.17313 0.0022,2.5083 -0.218431,3.90554 -0.803525,5.08963 -0.93256,1.88726 -3.380311,4.46768 -4.607436,4.85715 -1.063695,0.33761 -1.070314,0.98837 -0.02163,2.12651 0.757626,0.82226 9.223022,14.0081 10.373977,16.15868 0.500124,0.93449 0.477847,0.94044 -3.519201,0.94044 h -4.022512 l -2.555634,-4.42988 C 19.474191,126.9009 18.355416,125.70346 14.651564,125.70346 h -1.966289 v 7.9954 7.9954 H 9.2278037 5.7703327 Z M 20.45597,118.46371 c 3.007419,-1.51098 4.27382,-5.07108 2.810494,-7.90084 -0.995693,-1.92545 -2.753958,-2.61197 -6.816079,-2.66136 l -3.549018,-0.0431 -0.120591,5.68116 -0.12059,5.68117 3.145878,-6.9e-4 c 2.13228,-4.8e-4 3.630472,-0.24414 4.649906,-0.75632 z m 62.750372,9.02072 -1.005359,-0.27184 1.005359,-0.94155 c 1.559566,-1.46058 4.550149,-2.55172 8.568581,-3.12632 6.201947,-0.88683 6.369531,-1.00644 4.898688,-3.49637 -0.785831,-1.33031 -2.226279,-2.15639 -3.760121,-2.15639 -2.048724,0 -5.485221,1.37753 -7.59309,3.0437 l -2.189154,1.73043 v -3.92349 -3.92349 l 2.400989,-1.06183 c 6.297896,-2.78523 13.662598,-1.96152 16.434565,1.83813 1.46575,2.00915 1.64223,2.73911 1.88879,7.81246 l 0.23657,4.86762 -9.940225,-0.0596 c -5.467126,-0.0328 -10.392644,-0.18194 -10.945593,-0.33146 z m 25.156758,-2.73298 c 0.52816,-5.68278 3.46251,-10.12411 8.02434,-12.14534 2.78446,-1.23372 7.32416,-1.21224 10.12518,0.0479 2.50174,1.12551 2.59534,1.13786 2.27383,0.30001 -0.2083,-0.54282 0.31144,-0.64827 3.19514,-0.64827 h 3.4439 v 4.70806 4.70806 l -2.91724,1.17469 c -1.60448,0.64608 -3.13321,1.2606 -3.39717,1.36561 -0.27322,0.10869 -0.58483,-0.45549 -0.72349,-1.30991 -0.13395,-0.82546 -0.57976,-2.01395 -0.99068,-2.6411 -0.87117,-1.32957 -3.57,-2.81921 -5.10767,-2.81921 -3.75348,0 -7.17639,3.7851 -7.17639,7.93575 v 1.91961 l -2.48505,0.22317 c -4.94711,0.44427 -4.58993,0.68037 -4.2647,-2.81904 z m -40.466336,1.25149 -2.485057,-0.43939 v -3.60361 -3.60361 h -2.160919 -2.16092 v -3.02529 -3.02528 h 2.16092 2.160919 v -3.17912 -3.17912 l 3.349425,-1.06397 3.349425,-1.06398 0.123164,4.24309 0.123168,4.2431 h 3.226257 3.226261 v 3.02528 3.02529 h -3.241379 -3.241379 v 4.10575 c 0,4.67927 0.36383,4.38845 -4.429885,3.54086 z m 75.255116,-9.27645 c 0.64794,-1.21069 3.52544,-3.42731 5.52515,-4.25619 1.91156,-0.79233 1.88838,-0.75395 -0.72013,1.19221 -1.07071,0.79884 -2.69571,2.01281 -3.6111,2.69771 -1.36619,1.02218 -1.58007,1.0878 -1.19392,0.36627 z"
         id="path3769"
         inkscape:connector-curvature="0" />
    </g>
  </g>
</svg>
