<?xml version="1.0" encoding="UTF-8" standalone="no"?>
<!-- Created with Inkscape (http://www.inkscape.org/) -->

<svg
   xmlns:dc="http://purl.org/dc/elements/1.1/"
   xmlns:cc="http://creativecommons.org/ns#"
   xmlns:rdf="http://www.w3.org/1999/02/22-rdf-syntax-ns#"
   xmlns:svg="http://www.w3.org/2000/svg"
   xmlns="http://www.w3.org/2000/svg"
   xmlns:sodipodi="http://sodipodi.sourceforge.net/DTD/sodipodi-0.dtd"
   xmlns:inkscape="http://www.inkscape.org/namespaces/inkscape"
   width="100.01355mm"
   height="70.907623mm"
   viewBox="0 0 100.01355 70.907623"
   version="1.1"
   id="svg3789"
   inkscape:version="0.92.4 (5da689c313, 2019-01-14)"
   sodipodi:docname="producto.svg">
  <defs
     id="defs3783" />
  <sodipodi:namedview
     id="base"
     pagecolor="#ffffff"
     bordercolor="#666666"
     borderopacity="1.0"
     inkscape:pageopacity="0.0"
     inkscape:pageshadow="2"
     inkscape:zoom="0.35"
     inkscape:cx="-505.85113"
     inkscape:cy="-98.858478"
     inkscape:document-units="mm"
     inkscape:current-layer="layer1"
     showgrid="false"
     fit-margin-top="0"
     fit-margin-left="0"
     fit-margin-right="0"
     fit-margin-bottom="0"
     inkscape:window-width="1726"
     inkscape:window-height="1232"
     inkscape:window-x="1166"
     inkscape:window-y="504"
     inkscape:window-maximized="0" />
  <metadata
     id="metadata3786">
    <rdf:RDF>
      <cc:Work
         rdf:about="">
        <dc:format>image/svg+xml</dc:format>
        <dc:type
           rdf:resource="http://purl.org/dc/dcmitype/StillImage" />
        <dc:title></dc:title>
      </cc:Work>
    </rdf:RDF>
  </metadata>
  <g
     inkscape:label="Layer 1"
     inkscape:groupmode="layer"
     id="layer1"
     transform="translate(-54.464779,-51.769407)">
    <g
       id="g3751"
       transform="matrix(0.73829007,0,0,0.73829007,25.202862,-94.529262)">
      <path
         style="fill:#e7e7e7;stroke-width:0.26458332"
         d="m 42.854913,293.54044 c -1.298304,-0.74222 -1.943634,-1.42032 -2.697034,-2.83398 -0.483776,-0.90774 -0.523163,-1.51617 -0.523163,-8.0815 v -7.09985 l 0.859896,-1.43595 c 0.693884,-1.15873 1.162737,-1.59065 2.428531,-2.23726 l 1.568636,-0.80129 28.906261,-0.0718 28.90626,-0.0718 0.16145,-1.51569 c 0.3716,-3.48859 1.80775,-8.5222 5.26374,-18.44903 2.50419,-7.19291 3.357,-11.4901 2.82351,-14.22725 -0.35319,-1.81208 -1.07363,-3.18548 -1.98385,-3.78188 -2.47419,-1.62115 -11.193569,-2.05116 -27.130269,-1.33799 -7.765105,0.34749 -8.413313,0.47173 -10.605444,2.03266 -1.046793,0.74538 -2.641619,2.95541 -3.365339,4.66351 -0.537392,1.26834 -0.581411,1.79795 -0.582776,7.01146 -7.94e-4,3.10172 -0.123357,6.07833 -0.272323,6.61467 -0.326739,1.17642 -1.493408,2.21762 -2.913231,2.59994 l -1.046303,0.28174 v 1.82512 1.82512 l 0.859896,0.0829 0.859895,0.0829 v 2.11667 2.11666 l -0.849053,0.0821 -0.849054,0.0821 -0.07699,2.03457 -0.07699,2.03457 -2.182812,0.0768 -2.182813,0.0768 v -6.22841 -6.22841 H 57.34667 c -2.286064,0 -4.502644,-1.28946 -4.949571,-2.87934 -0.107071,-0.38089 -0.194675,-12.00347 -0.194675,-25.82795 v -25.13542 l 0.609195,-0.97973 c 1.039795,-1.67224 1.57143,-1.79852 7.567392,-1.7974 4.803626,8.9e-4 5.398823,0.0508 6.162683,0.51653 1.443315,0.88005 1.78381,1.68651 1.95453,4.62933 0.204036,3.51706 1.016952,5.35618 2.84163,6.42882 l 1.237485,0.72745 h 26.193749 26.193752 l 0.0717,-5.23029 0.0718,-5.2303 6.27824,0.0709 6.27825,0.0709 0.0714,5.43655 0.0713,5.43654 3.10365,0.59191 c 3.77337,0.71963 5.25007,1.13487 8.59375,2.41653 l 2.57969,0.98881 v -2.34482 c 0,-3.0533 0.58903,-4.42199 2.34808,-5.45609 1.1218,-0.65947 1.45532,-0.71943 4.00192,-0.71943 2.4744,0 2.90626,0.0723 3.95017,0.66146 0.78509,0.44308 1.37472,1.04645 1.78593,1.82756 l 0.6139,1.16609 -0.006,17.22245 c -0.005,16.14477 -0.0362,17.28867 -0.4918,18.28078 -0.2673,0.58208 -0.71708,1.26355 -0.99952,1.51438 -0.86564,0.76878 -2.70908,1.26374 -4.7067,1.26374 -3.37797,0 -5.4832,-1.17195 -6.24349,-3.47567 -0.33572,-1.01723 -0.36698,-1.04098 -0.5959,-0.45259 -0.31695,0.81465 -1.62697,6.27113 -1.99123,8.29389 -0.68529,3.80537 -1.17762,8.59963 -1.52834,14.88281 l -0.18092,3.24114 h 10.34321 c 6.47803,0 10.84669,0.10798 11.69052,0.28895 1.83128,0.39274 3.40906,1.63935 4.30113,3.39834 l 0.72761,1.43469 v 6.38771 c 0,7.0629 -0.14931,7.96084 -1.62048,9.74562 -0.44658,0.54178 -1.27195,1.21972 -1.83416,1.50654 -1.00881,0.51465 -1.85185,0.52144 -64.3343,0.5183 l -63.312099,-0.003 z M 170.09768,289.2114 c 0.46458,-0.57374 0.50578,-1.11086 0.50578,-6.59375 0,-5.18304 -0.0577,-6.03285 -0.43788,-6.45298 -0.41529,-0.45888 -1.28815,-0.48386 -16.9117,-0.48386 -9.06059,0 -16.66214,-0.0723 -16.89232,-0.1606 -0.61187,-0.23479 -0.61187,-4.2065 0,-4.4413 0.23018,-0.0883 1.95659,-0.1606 3.83646,-0.1606 h 3.41794 l 5.3e-4,-0.7276 c 0.002,-3.60038 0.93203,-13.79798 1.61039,-17.66094 0.77632,-4.42085 2.43492,-10.56866 3.67385,-13.61762 0.26798,-0.65947 1.12003,-2.77995 1.89344,-4.71216 l 1.4062,-3.51312 1.19795,0.16385 c 0.65886,0.0901 1.64224,0.27604 2.18527,0.41316 l 0.98733,0.2493 0.071,6.14267 0.071,6.14267 1.78794,0.0783 1.78794,0.0783 -0.0682,-16.48245 -0.0682,-16.48245 -1.1694,-0.0836 c -0.64317,-0.046 -1.44428,-0.0146 -1.78024,0.0697 -0.60836,0.15269 -0.61113,0.17398 -0.68268,5.24293 l -0.0719,5.08962 -2.07843,0.13229 c -2.0564,0.13089 -2.08243,0.12457 -2.45494,-0.59675 -1.01603,-1.96742 -6.6937,-4.06235 -14.11975,-5.20988 -2.11005,-0.32605 -3.98529,-0.63749 -4.16719,-0.69209 -0.24994,-0.075 -0.33073,-1.36443 -0.33073,-5.27852 v -5.17927 l -1.91823,0.0777 -1.91823,0.0777 -0.0717,5.22552 -0.0717,5.22552 -27.57722,-0.002 c -16.222733,-9e-4 -28.211324,-0.10538 -29.117299,-0.25376 -3.324183,-0.54442 -5.868517,-2.40556 -7.246113,-5.30041 -0.780569,-1.64027 -1.377096,-4.09359 -1.390972,-5.72062 -0.009,-1.05163 -0.0441,-1.09561 -1.001482,-1.25385 -1.289221,-0.2131 -3.640148,-0.21381 -5.188592,-0.002 l -1.227554,0.16825 v 23.77654 23.77654 h 2.888762 2.888761 l 0.09702,-6.01928 c 0.108986,-6.76156 0.143158,-6.91592 2.266019,-10.23632 2.184595,-3.41697 5.00187,-5.50856 8.528782,-6.3319 3.238275,-0.75596 23.19526,-1.22173 29.103568,-0.67923 8.49371,0.77988 11.33336,2.77492 12.59541,8.84907 0.37917,1.82492 0.39553,2.45879 0.1195,4.62807 -0.47344,3.72059 -0.56167,4.04148 -4.11053,14.94896 -3.25241,9.99637 -3.65869,11.43266 -3.98532,14.08906 l -0.1708,1.38906 h 3.94066 c 2.71218,0 4.03964,0.099 4.25817,0.3175 0.18809,0.1881 0.3175,1.0932 0.3175,2.22065 0,1.49136 -0.0906,1.93791 -0.41852,2.06375 -0.23018,0.0883 -16.042738,0.1606 -35.139012,0.1606 -29.559554,0 -34.796839,0.0558 -35.234088,0.37534 -0.481973,0.35224 -0.51359,0.74062 -0.51359,6.30885 0,6.48898 0.140122,7.21779 1.426289,7.4185 0.379707,0.0593 28.472229,0.0953 62.427821,0.0801 l 61.73745,-0.0276 z"
         id="path3765"
         inkscape:connector-curvature="0" />
      <path
         style="fill:#cececf;stroke-width:0.26458332"
         d="m 43.340772,293.78104 c -1.149077,-0.49939 -1.979498,-1.25602 -2.877817,-2.6221 l -0.695947,-1.05833 -0.08224,-6.79112 c -0.05049,-4.1687 0.02466,-7.18813 0.194606,-7.81925 0.372321,-1.3827 1.857195,-3.0594 3.317102,-3.74564 l 1.194976,-0.5617 h 28.95572 28.955718 l 0.17688,-1.52136 c 0.41593,-3.57751 1.52743,-7.68812 4.00368,-14.80673 3.77449,-10.85073 4.77892,-15.35369 4.10074,-18.3841 -0.949,-4.24057 -2.87483,-4.97593 -13.53489,-5.16818 -3.710782,-0.0669 -10.259219,-0.002 -14.552083,0.14389 -6.998017,0.23811 -7.964667,0.32554 -9.347102,0.84543 -1.86613,0.70179 -4.168806,2.86823 -5.340342,5.02438 l -0.79068,1.45521 -0.137454,6.48229 c -0.168492,7.94618 -0.333579,8.42977 -3.118457,9.13513 l -1.242006,0.31457 -0.07728,2.02203 -0.07728,2.02202 h 0.937172 0.937171 v 2.11667 2.11666 h -0.926042 -0.926041 v 2.11667 2.11667 h -2.116667 -2.116667 v -6.35 -6.35 l -1.389062,-5.3e-4 c -1.711229,-5.3e-4 -3.03317,-0.6301 -3.831184,-1.82465 l -0.600587,-0.89891 v -25.45404 -25.45403 l 0.600587,-0.89903 c 1.102106,-1.64975 1.82009,-1.82473 7.469205,-1.8203 4.729812,0.004 5.089666,0.0394 6.085416,0.60271 1.454229,0.82275 1.955945,1.95649 1.971667,4.45538 0.02336,3.71438 1.499275,6.42806 3.849166,7.07724 0.739106,0.20418 8.859488,0.29282 26.921353,0.29385 l 25.863017,0.001 v -5.15938 -5.15937 h 6.35 6.35 v 5.38685 5.38686 l 2.94494,0.58674 c 3.4965,0.69665 7.57664,1.87864 9.64985,2.79551 0.82168,0.36339 1.53869,0.6607 1.59334,0.6607 0.0547,0 0.0994,-1.01585 0.0994,-2.25745 0,-3.27662 0.67361,-4.67079 2.77812,-5.74982 1.40669,-0.72125 5.8958,-0.79702 7.17838,-0.12116 1.10558,0.58258 2.1359,1.84575 2.48543,3.04713 0.19453,0.66862 0.25986,6.3636 0.20549,17.91359 -0.0907,19.27212 0.0231,18.29247 -2.28197,19.64332 -1.09534,0.64191 -1.4542,0.70689 -3.86817,0.70047 -3.7906,-0.0101 -5.19563,-0.78693 -6.23474,-3.44722 -0.27631,-0.70738 -0.50794,-1.19865 -0.51475,-1.09171 -0.007,0.10694 -0.30284,1.19677 -0.65785,2.42183 -1.63463,5.64076 -3.03375,16.2327 -3.05326,23.11446 l -0.005,1.91823 11.04635,0.003 11.04635,0.003 1.3733,0.63939 c 1.70962,0.79599 2.85191,2.29937 3.26726,4.30007 0.19486,0.93863 0.27158,3.58096 0.21318,7.34214 l -0.0912,5.8758 -0.7978,1.55938 c -0.61045,1.19318 -1.10264,1.74785 -2.0959,2.36194 l -1.2981,0.80257 -63.25618,0.0567 c -56.061963,0.0502 -63.361277,0.011 -64.180324,-0.34497 z m 126.565548,-4.3611 0.69714,-0.54837 v -6.1882 c 0,-6.02519 -0.0153,-6.2024 -0.57906,-6.72766 -0.57,-0.53104 -0.83894,-0.53948 -17.19791,-0.53948 h -16.61886 v -2.1094 -2.1094 l 3.77031,-0.0734 3.77031,-0.0734 0.17321,-4.36563 c 0.39601,-9.98161 1.76815,-18.16786 4.27958,-25.53229 0.95394,-2.7973 3.81427,-9.92787 4.10613,-10.23626 0.14978,-0.15827 1.02663,-0.0392 3.41348,0.46364 l 0.59531,0.12541 v 5.79415 c 0,3.18679 0.0723,5.98249 0.1606,6.21267 0.12458,0.32466 0.56269,0.41852 1.95352,0.41852 1.63566,0 1.8069,-0.0522 1.95245,-0.59532 0.20834,-0.77743 0.20834,-31.10486 0,-31.88229 -0.14555,-0.5431 -0.31679,-0.59531 -1.95245,-0.59531 -1.39083,0 -1.82894,0.0939 -1.95352,0.41851 -0.0883,0.23019 -0.1606,2.53633 -0.1606,5.12476 v 4.70624 l -0.99219,0.164 c -1.77969,0.29417 -3.24114,0.20414 -3.24114,-0.19964 0,-0.54494 -1.75301,-1.98812 -3.13393,-2.58006 -2.93089,-1.25632 -8.62391,-2.69256 -12.87336,-3.2477 -0.72761,-0.0951 -1.65034,-0.2373 -2.05052,-0.31611 l -0.72761,-0.1433 v -5.13835 -5.13835 h -1.98437 -1.98438 v 5.15937 5.15938 H 100.8006 c -25.846733,0 -28.650414,-0.0412 -29.831774,-0.43799 -2.417529,-0.81206 -4.305029,-2.43308 -5.45287,-4.68304 -0.82979,-1.62652 -1.039989,-2.46816 -1.232052,-4.93314 l -0.175231,-2.24896 -3.770312,-0.0734 -3.770313,-0.0734 v 23.95206 23.95206 h 2.910417 2.910417 v -5.23608 c 0,-7.55812 0.729257,-9.7589 4.497855,-13.57377 2.89016,-2.92565 6.018331,-4.21231 10.224709,-4.20558 1.143164,0.002 5.723979,-0.13791 10.179597,-0.31054 11.908038,-0.46136 19.598387,0.16576 22.940337,1.8707 4.52753,2.30977 5.93144,8.49941 3.78618,16.69277 -0.43817,1.67348 -1.87719,6.1832 -3.19782,10.02159 -2.60396,7.56832 -3.6544,11.32754 -3.8999,13.95656 l -0.15748,1.68643 h 4.1393 4.1393 v 2.11666 2.11667 H 80.103939 45.166913 l -0.649432,0.64943 -0.649432,0.64943 v 5.97718 5.97718 l 0.649432,0.64943 0.649432,0.64943 h 62.021137 62.02113 z"
         id="path3763"
         inkscape:connector-curvature="0" />
      <path
         style="fill:#aaabac;stroke-width:0.26458332"
         d="m 43.102017,293.50445 c -1.566373,-0.78056 -2.78257,-2.24041 -3.220079,-3.86519 -0.173473,-0.64423 -0.248837,-3.53735 -0.197655,-7.58762 l 0.08272,-6.54637 0.801983,-1.2963 c 0.882485,-1.42642 2.065395,-2.34972 3.532518,-2.75725 0.61392,-0.17053 11.222224,-0.2664 29.582098,-0.26735 l 28.624938,-10e-4 0.1739,-1.25677 c 0.528,-3.81578 1.53046,-7.47759 4.3641,-15.94115 3.37106,-10.06873 4.09932,-13.11317 3.89905,-16.2996 -0.14267,-2.2701 -0.97981,-4.17475 -2.14686,-4.88447 -2.38974,-1.45329 -8.940139,-1.90479 -22.397355,-1.54379 -10.388067,0.27867 -12.13137,0.44633 -13.91791,1.33858 -1.569789,0.78399 -3.815623,3.21568 -4.77574,5.17096 -0.752626,1.53273 -0.75333,1.53917 -0.885515,8.10329 l -0.132292,6.56935 -0.983348,0.90059 c -0.628555,0.57566 -1.368384,0.96217 -2.05052,1.07124 l -1.067173,0.17065 v 2.08285 2.08285 h 0.926041 0.926042 v 2.11667 2.11666 h -0.926042 -0.926041 v 1.98438 1.98437 H 60.27221 58.155543 v -6.2177 -6.21771 h -1.266854 c -1.723133,0 -3.489842,-0.91419 -4.090547,-2.11667 -0.430679,-0.86212 -0.462609,-2.66096 -0.462609,-26.06146 0,-28.46837 -0.155732,-26.43742 2.115844,-27.59338 1.136801,-0.5785 1.420033,-0.60242 6.265322,-0.52917 4.645326,0.0702 5.136445,0.12288 5.804485,0.62224 1.485072,1.11008 1.748898,1.74174 1.94624,4.65965 0.265735,3.92919 1.090793,5.57173 3.31416,6.59788 1.006023,0.46431 2.349768,0.48874 27.185937,0.49427 l 26.127609,0.006 v -5.15938 -5.15937 h 6.2177 6.21771 v 5.42395 c 0,2.98318 0.0464,5.42396 0.10307,5.42396 0.0567,0 1.09847,0.18505 2.3151,0.41122 3.42684,0.63705 7.28736,1.70057 9.70135,2.67261 1.2087,0.48671 2.23429,0.88492 2.27906,0.88492 0.0448,0 0.13919,-1.10503 0.20985,-2.45562 0.1548,-2.95963 0.66713,-4.19418 2.1475,-5.17476 0.93707,-0.6207 1.37361,-0.71485 3.68981,-0.79577 4.16735,-0.1456 5.91054,0.8356 6.51818,3.66895 0.34602,1.61341 0.38417,32.31913 0.0423,34.08842 -0.24631,1.27496 -0.86538,2.23683 -1.97197,3.06389 -0.59939,0.44798 -1.20887,0.56207 -3.40874,0.63807 -1.5331,0.053 -3.11051,-0.0368 -3.68811,-0.20983 -1.42909,-0.42817 -2.81195,-1.89408 -3.0212,-3.20265 -0.093,-0.58159 -0.25518,-1.11063 -0.3604,-1.17566 -0.29139,-0.1801 -1.25931,3.26303 -2.11913,7.5383 -0.94889,4.71817 -1.55767,10.14681 -1.77282,15.80885 l -0.16337,4.29948 h 10.85606 c 12.0045,0 12.35402,0.0414 14.06276,1.6649 1.77448,1.68598 1.87478,2.19715 1.87962,9.57989 0.003,3.98271 -0.11087,7.03568 -0.2852,7.67292 -0.37141,1.35767 -2.46585,3.43136 -3.85539,3.81721 -0.70027,0.19445 -20.26971,0.28133 -63.59965,0.28235 l -62.58816,10e-4 z m 126.972273,-4.0653 c 0.4997,-0.4997 0.52917,-0.88195 0.52917,-6.86417 0,-6.24647 -0.008,-6.34075 -0.58804,-6.74687 -0.51706,-0.36216 -2.5929,-0.41188 -17.19792,-0.41188 h -16.60987 v -2.11667 -2.11666 h 3.79543 3.79543 l 0.17761,-4.29948 c 0.52126,-12.61796 2.17007,-20.75166 6.28012,-30.98019 0.88642,-2.20603 1.71065,-4.26325 1.83161,-4.57162 0.21677,-0.5526 0.24866,-0.55494 2.21924,-0.16283 l 1.99931,0.39783 0.0709,6.11595 0.0709,6.11596 1.16877,0.15597 c 0.64282,0.0858 1.53579,0.0809 1.98437,-0.0109 l 0.81561,-0.16681 v -16.38247 -16.38248 l -0.81561,-0.16681 c -0.44858,-0.0917 -1.34155,-0.0966 -1.98437,-0.0108 l -1.16877,0.15596 -0.0719,5.09323 c -0.0668,4.73471 -0.10597,5.09323 -0.5565,5.09323 -0.26655,0 -1.19975,0.0747 -2.07378,0.1661 -1.53095,0.16001 -1.59518,0.14207 -1.75378,-0.48984 -0.48399,-1.9284 -6.69878,-4.22113 -14.92481,-5.50598 l -3.77031,-0.58889 v -5.12507 -5.12507 h -1.98437 -1.98438 v 5.16505 5.16505 l -28.91146,-0.0718 -28.911456,-0.0718 -1.769099,-0.87101 c -3.406709,-1.67727 -5.483979,-5.37561 -5.49234,-9.77847 l -0.0031,-1.65365 h -3.836458 -3.836459 v 23.94479 23.9448 h 3.029116 3.029116 l 0.07974,-6.15157 0.07974,-6.15156 0.836394,-1.76542 c 1.709934,-3.60925 4.154113,-6.15078 7.365688,-7.65907 2.141683,-1.00583 4.629047,-1.24722 15.478125,-1.50214 19.940363,-0.46854 24.709653,0.49843 27.218193,5.51844 1.117,2.23533 1.45534,4.13999 1.26616,7.12798 -0.21823,3.44718 -1.0402,6.57428 -3.97922,15.13865 -2.41449,7.03587 -3.92518,12.41336 -4.23923,15.09 l -0.14745,1.25677 h 4.22827 4.22827 v 2.11666 2.11667 H 80.103939 45.166913 l -0.649432,0.64943 -0.649432,0.64943 v 5.92948 c 0,5.59805 0.03065,5.96843 0.54837,6.6266 l 0.54837,0.69714 h 62.290171 c 61.93739,0 62.29316,-0.003 62.81933,-0.52916 z"
         id="path3761"
         inkscape:connector-curvature="0" />
      <path
         style="fill:#919293;stroke-width:0.26458332"
         d="m 43.868049,293.85686 c -0.509323,-0.16115 -1.53788,-0.9024 -2.285683,-1.64722 -1.871764,-1.86431 -2.016312,-2.64698 -1.904298,-10.31112 0.07791,-5.33099 0.151175,-6.21073 0.590952,-7.09624 0.638778,-1.28621 1.698867,-2.3463 2.985077,-2.98508 0.969054,-0.48126 2.213276,-0.50748 30.10738,-0.6343 l 29.096553,-0.13229 0.30744,-2.24896 c 0.49682,-3.63429 1.01508,-5.48555 4.08063,-14.57618 3.32074,-9.84739 3.9477,-12.34162 3.9558,-15.73732 0.005,-2.10006 -0.0852,-2.57945 -0.72187,-3.83645 -1.5346,-3.02974 -4.0845,-3.55547 -16.999483,-3.5049 -5.020469,0.0197 -11.354154,0.14857 -14.074859,0.28647 -4.633831,0.23486 -5.043869,0.2982 -6.482292,1.00141 -1.912141,0.9348 -3.649972,2.69225 -4.848341,4.90306 l -0.920549,1.69828 -0.132291,6.4823 c -0.09136,4.47637 -0.234469,6.66081 -0.462484,7.0592 -0.47691,0.83326 -1.654854,1.59856 -2.787595,1.81106 l -0.983254,0.18446 v 2.08722 2.08722 h 0.926041 0.926042 v 1.96761 1.96761 l -0.859896,0.0829 -0.859896,0.0829 -0.07728,2.05052 -0.07728,2.05052 h -2.105536 -2.105538 v -6.18096 -6.18096 L 56.527532,254.44 c -1.718317,-0.15581 -2.566392,-0.60934 -3.515019,-1.87975 -0.540571,-0.72394 -0.546235,-0.9564 -0.624991,-25.64823 -0.05549,-17.3982 0.0074,-25.21649 0.208457,-25.90786 0.368682,-1.26787 1.324602,-2.21831 2.582432,-2.56763 1.350534,-0.37506 9.276227,-0.35787 10.412125,0.0226 1.10098,0.36876 2.0597,1.19785 2.405228,2.08002 0.142496,0.3638 0.346096,1.85856 0.452445,3.32169 0.322448,4.43619 1.610871,6.19198 4.944356,6.73787 0.929534,0.15222 11.733976,0.25675 26.633285,0.25766 l 25.06927,0.002 v -5.29167 -5.29166 h 6.21234 6.21234 l 0.0715,5.48218 0.0715,5.48218 1.94827,0.32604 c 3.19605,0.53484 7.42909,1.66993 9.82568,2.63476 1.23693,0.49797 2.36802,0.93203 2.51355,0.96459 0.15712,0.0352 0.31831,-1.07466 0.39687,-2.73269 0.13786,-2.9094 0.43439,-3.74647 1.69977,-4.79819 0.84614,-0.70326 3.04669,-1.09311 5.40096,-0.95682 1.71762,0.0994 2.33135,0.25581 3.16244,0.8058 2.0126,1.33188 1.92736,0.39828 1.847,20.22806 l -0.0716,17.67554 -0.61617,0.86389 c -0.92408,1.29559 -1.98776,1.73078 -4.5432,1.85881 -2.60701,0.13062 -4.14353,-0.2097 -5.2856,-1.17069 -1.02554,-0.86294 -1.333,-1.44221 -1.5781,-2.97326 l -0.19604,-1.22458 -0.33363,0.79375 c -0.18349,0.43656 -0.67399,2.12745 -1.08998,3.75753 -1.49088,5.84201 -2.30568,11.90158 -2.54336,18.91464 l -0.16759,4.94509 11.21954,0.082 c 11.00678,0.0804 11.24039,0.0931 12.31843,0.66962 1.37284,0.73413 2.66592,2.27399 3.02502,3.60235 0.16662,0.61633 0.242,3.62998 0.19191,7.67291 -0.073,5.89401 -0.13916,6.7642 -0.57645,7.58398 -0.69398,1.30101 -1.45458,2.07769 -2.68103,2.73773 l -1.05833,0.56957 -62.83854,0.0402 c -45.324381,0.029 -63.096642,-0.0414 -63.76458,-0.25275 z m 126.363671,-4.44492 c 0.45875,-0.50639 0.51153,-1.09545 0.58752,-6.55685 0.0806,-5.79414 0.064,-6.02521 -0.48222,-6.71967 l -0.56572,-0.71919 h -16.79296 -16.79297 l 0.0773,-2.05052 0.0773,-2.05052 3.77031,-0.0734 3.77031,-0.0734 10e-4,-1.11722 c 0.002,-1.82978 0.50385,-9.3944 0.80331,-12.09742 0.6054,-5.46462 2.06225,-12.31959 3.51441,-16.53646 0.90414,-2.62549 3.88013,-10.00996 4.14331,-10.28101 0.12217,-0.12582 1.05601,-0.0775 2.09686,0.10852 l 1.87659,0.33537 v 6.04959 6.04959 l 0.67868,0.25803 c 0.75958,0.28879 2.49682,0.34277 3.13614,0.0974 0.37531,-0.14407 0.41839,-1.85706 0.41839,-16.64044 0,-18.45669 0.1994,-16.80104 -2.02341,-16.80104 -2.261,0 -2.20992,-0.12865 -2.20992,5.56556 v 5.01777 l -0.99219,0.003 c -0.5457,0.002 -1.43587,0.0763 -1.97814,0.1659 -0.86819,0.14352 -1.01468,0.0879 -1.22641,-0.46593 -0.47818,-1.25074 -2.1981,-2.26714 -5.93985,-3.51022 -2.51324,-0.83494 -8.03674,-2.02584 -11.223,-2.41975 l -1.38355,-0.17105 -0.0717,-5.20145 -0.0717,-5.20145 -1.96106,-0.0786 c -1.39006,-0.0557 -2.02445,0.0213 -2.17876,0.26458 -0.11973,0.18875 -0.21952,2.57561 -0.22175,5.30412 l -0.004,4.96094 H 101.0736 c -30.406171,0 -29.86663,0.0244 -32.110368,-1.45342 -2.927722,-1.92834 -4.722307,-5.61273 -4.722307,-9.69519 v -1.28681 h -3.836458 -3.836459 v 23.94479 23.9448 h 3.042709 3.042708 v -5.64713 c 0,-4.92973 0.06623,-5.83961 0.521323,-7.16237 1.543043,-4.48493 5.561492,-8.47761 9.578097,-9.51667 3.473302,-0.89852 28.027885,-1.23048 32.498495,-0.43936 4.21556,0.74599 6.33057,1.84387 7.8554,4.07767 1.35494,1.98493 1.80034,3.79201 1.76932,7.17848 -0.0351,3.83321 -0.66732,6.37727 -4.15232,16.70951 -2.66056,7.88794 -3.64746,11.40001 -4.02004,14.30605 l -0.17722,1.38222 4.19108,0.073 4.19107,0.073 0.0773,2.05052 0.0773,2.05052 H 79.994801 c -34.715641,0 -35.073742,0.005 -35.597585,0.52917 -0.499143,0.49914 -0.529167,0.88194 -0.529167,6.74687 0,5.86493 0.03002,6.24774 0.529167,6.74688 0.526175,0.52617 0.881944,0.52916 62.929824,0.52916 h 62.40065 z"
         id="path3759"
         inkscape:connector-curvature="0" />
      <path
         style="fill:#7d7e80;stroke-width:0.26458332"
         d="m 43.871697,293.68334 c -1.865443,-0.64388 -3.257381,-2.0999 -3.820605,-3.99648 -0.321424,-1.08235 -0.416376,-2.67742 -0.416376,-6.99459 0,-6.29204 0.247511,-7.69383 1.638133,-9.27766 1.739625,-1.98132 -0.872849,-1.8198 31.817327,-1.96713 l 29.354414,-0.13229 0.33836,-2.38125 c 0.59479,-4.18598 1.45045,-7.13205 5.18789,-17.86213 2.13131,-6.11891 2.83679,-9.19484 2.83679,-12.36852 0,-4.93477 -1.12198,-6.2178 -6.35,-7.26145 -2.05555,-0.41034 -19.60041,-0.4128 -26.361696,-0.004 -4.089101,0.24741 -4.338095,0.29513 -5.908955,1.13239 -1.885342,1.00488 -3.577206,2.80411 -4.676177,4.97293 l -0.756296,1.49256 -0.132291,6.4823 c -0.09507,4.65842 -0.230098,6.65377 -0.479907,7.09176 -0.450969,0.79068 -1.850277,1.63724 -2.708322,1.6385 -1.071923,0.002 -1.309688,0.46767 -1.309688,2.56744 v 1.93146 h 1.058334 1.058333 v 1.9684 1.96841 l -0.992188,0.0821 -0.992187,0.0821 -0.07728,2.05052 -0.07728,2.05052 h -1.973245 -1.973246 v -6.19172 -6.19174 l -1.586802,-0.18416 c -0.934367,-0.10845 -1.940646,-0.42235 -2.447395,-0.76346 -1.743434,-1.17356 -1.646036,0.3121 -1.736586,-26.48871 -0.05739,-16.98481 0.0056,-24.74943 0.20849,-25.69085 0.605604,-2.81042 2.121358,-3.3855 8.523374,-3.23379 6.29224,0.1491 6.906134,0.60229 7.164383,5.28891 0.123666,2.24429 0.269166,2.91353 0.902798,4.1525 0.80445,1.57297 1.907386,2.50218 3.492698,2.94253 0.610849,0.16968 10.266873,0.26641 26.687893,0.26735 l 25.730728,0.001 v -5.29167 -5.29166 h 6.21771 6.2177 v 5.55625 c 0,5.43179 0.0122,5.55625 0.54444,5.55625 1.9188,0 8.82641,1.80216 12.13139,3.16503 1.07197,0.44204 1.99219,0.80372 2.04494,0.80372 0.0527,0 0.0959,-1.13492 0.0959,-2.52204 0,-1.5461 0.14038,-2.8515 0.36278,-3.37344 0.81958,-1.92349 2.77338,-2.84739 5.95434,-2.81564 2.97485,0.0297 4.41459,0.70859 5.33621,2.51629 0.49809,0.97697 0.51729,1.66049 0.51169,18.22317 -0.005,16.20435 -0.0345,17.27132 -0.49792,18.2917 -0.6602,1.4537 -1.92347,2.19849 -4.06871,2.39882 -4.53832,0.42379 -7.19185,-0.98479 -7.53148,-3.99798 -0.16857,-1.49557 -0.36056,-1.3342 -1.0856,0.91245 -1.80267,5.58587 -3.05258,14.39705 -3.26532,23.01875 l -0.0816,3.30729 11.50937,0.13229 c 12.45375,0.14315 12.29269,0.12395 13.66124,1.62851 1.51381,1.66425 1.5523,1.90272 1.5523,9.61628 0,7.93274 0.003,7.91685 -1.85467,9.77454 -1.86704,1.86704 3.12061,1.73578 -65.59595,1.7262 -60.071748,-0.008 -61.974191,-0.0237 -63.382182,-0.50967 z m 126.121693,-4.08852 0.74236,-0.63807 0.0808,-5.88635 c 0.0731,-5.32338 -0.0131,-6.43845 -0.57591,-7.45083 -0.0187,-0.0337 -7.65405,-0.12298 -16.96738,-0.19844 l -16.93333,-0.13719 -0.0777,-1.91823 -0.0777,-1.91823 h 3.81119 3.8112 l 0.16684,-1.38906 c 0.0918,-0.76399 0.16788,-2.4893 0.16915,-3.83404 0.004,-4.62246 1.11493,-13.37167 2.37983,-18.74843 0.27733,-1.17887 0.9241,-3.44106 1.43726,-5.02708 1.10331,-3.41005 4.28043,-11.31473 4.58906,-11.4176 0.11845,-0.0395 0.98472,0.0839 1.92503,0.27409 l 1.70966,0.34589 0.071,6.1287 0.071,6.12871 0.861,0.16152 c 0.47355,0.0888 1.3941,0.12359 2.04567,0.0772 l 1.18467,-0.0843 v -16.66875 -16.66875 l -1.44106,-0.0818 c -0.79259,-0.045 -1.71533,-0.0129 -2.05053,0.0712 l -0.60945,0.15296 v 5.03035 c 0,3.79316 -0.0813,5.05558 -0.33073,5.13295 -0.1819,0.0564 -1.05067,0.15827 -1.93059,0.22631 -1.53958,0.11905 -1.61632,0.095 -2.03643,-0.63697 -1.29327,-2.25338 -8.49332,-4.66594 -16.92957,-5.67267 l -1.51586,-0.1809 -0.0716,-5.19572 -0.0716,-5.19572 h -2.11666 -2.11667 l -0.0717,5.22552 -0.0717,5.22552 h -27.59477 c -18.80089,0 -28.092403,-0.092 -29.156324,-0.28867 -4.565811,-0.84404 -7.244356,-4.09719 -7.888431,-9.58067 L 64.096473,202.2589 H 60.26599 56.435757 l -0.06755,24.00555 -0.06754,24.00554 0.596711,0.14911 c 0.328191,0.082 1.727805,0.1142 3.110253,0.0715 l 2.513541,-0.0776 0.132292,-6.10674 0.132292,-6.10674 1.166495,-2.35993 c 1.969868,-3.98522 5.456647,-6.9825 9.180083,-7.89129 2.115857,-0.51643 18.012375,-1.07715 24.843003,-0.87629 8.925783,0.26247 12.884613,1.36413 14.783053,4.1138 1.49332,2.16292 1.85914,3.41771 1.97077,6.7599 0.15414,4.61505 -0.076,5.59568 -4.19968,17.89124 -2.66795,7.9551 -3.95518,12.76927 -3.95518,14.79209 v 0.81833 h 4.10104 4.10104 v 1.98438 1.98437 H 80.005313 c -19.124088,0 -34.963803,0.074 -35.199368,0.16435 -1.030358,0.39539 -1.202871,1.43135 -1.193104,7.1647 0.01001,5.87634 0.116052,6.43853 1.342664,7.11839 0.519675,0.28803 11.648595,0.35215 62.463935,0.35985 l 61.83159,0.009 z"
         id="path3757"
         inkscape:connector-curvature="0" />
      <path
         style="fill:#777879;stroke-width:0.26458332"
         d="m 44.132632,293.79509 c -1.594043,-0.49496 -2.993424,-1.70183 -3.746554,-3.23114 -0.581015,-1.17982 -0.624499,-1.60984 -0.707378,-6.99539 -0.05648,-3.67018 0.02221,-6.27065 0.218344,-7.21542 0.353665,-1.7036 1.537815,-3.42169 2.916549,-4.23164 0.910519,-0.53489 1.29284,-0.5434 30.274848,-0.67402 l 29.352679,-0.13229 0.4489,-2.77813 c 0.6413,-3.96879 0.9967,-5.21868 4.21313,-14.81666 3.2843,-9.80053 3.70396,-11.52571 3.70426,-15.22774 1.9e-4,-2.30636 -0.0876,-2.83629 -0.66039,-3.9857 -0.82371,-1.65296 -1.93848,-2.31876 -4.93121,-2.94516 -1.92129,-0.40214 -3.66245,-0.45868 -13.193597,-0.42847 -13.841049,0.0439 -17.562821,0.2829 -19.629476,1.2607 -1.900946,0.89941 -4.012578,3.16171 -5.02113,5.37941 l -0.749392,1.64784 v 5.92662 c 0,6.4803 -0.169413,7.42205 -1.490911,8.28793 -0.38192,0.25025 -1.184971,0.52047 -1.784558,0.60051 l -1.090156,0.14552 -0.07685,2.18281 -0.07685,2.18281 h 0.936743 0.936741 v 1.96761 1.96761 l -0.859895,0.0829 -0.859896,0.0829 -0.07728,2.05052 -0.07728,2.05052 h -1.973245 -1.973246 v -6.35 -6.35 h -1.468347 c -1.756976,0 -2.870244,-0.51975 -3.569447,-1.66649 -0.502778,-0.82458 -0.516477,-1.52074 -0.516477,-26.24705 0,-24.7263 0.0137,-25.42246 0.516477,-26.24705 0.989535,-1.62289 1.68912,-1.79878 7.154461,-1.79878 7.159392,0 7.620272,0.29838 7.971655,5.16091 0.31406,4.34606 1.582295,6.42237 4.348273,7.11885 0.785199,0.19771 9.190974,0.28795 26.823275,0.28795 h 25.679708 v -5.29654 -5.29655 l 6.15156,0.071 6.15156,0.071 0.0715,5.47469 0.0715,5.47469 1.25145,0.1616 c 3.3933,0.43819 9.8451,2.22959 12.02268,3.33821 0.5399,0.27487 1.09228,0.49977 1.2275,0.49977 0.13522,0 0.29003,-1.29083 0.34403,-2.8685 0.0899,-2.6261 0.15817,-2.94714 0.80809,-3.79922 1.15601,-1.51561 2.3117,-1.93124 5.36998,-1.93124 3.02659,0 3.87356,0.31633 5.07955,1.89716 l 0.74128,0.97168 0.08,16.82183 c 0.044,9.25201 0.007,17.32728 -0.0822,17.94505 -0.18203,1.26106 -1.09884,2.50555 -2.34442,3.18236 -1.20824,0.65652 -5.73278,0.62165 -7.12717,-0.0549 -1.4227,-0.69032 -2.28576,-1.93416 -2.48,-3.57417 -0.089,-0.75167 -0.24884,-1.27091 -0.35514,-1.15388 -0.26272,0.28925 -1.18948,3.26924 -1.67071,5.37218 -1.49639,6.53905 -2.19961,12.36514 -2.34728,19.44687 l -0.0772,3.70417 11.50937,0.13229 11.50937,0.13229 1.04406,0.72111 c 1.47379,1.01793 2.45832,2.59927 2.66922,4.28727 0.0968,0.77458 0.13371,4.01269 0.0821,7.1958 -0.0934,5.75966 -0.0974,5.79385 -0.83114,7.11041 -0.86333,1.54913 -2.29011,2.65099 -3.91897,3.0265 -0.76716,0.17685 -22.15069,0.26379 -62.94211,0.25589 -52.128124,-0.0101 -61.966213,-0.0697 -62.970824,-0.38166 z m 125.514458,-3.8611 c 1.13873,-0.51884 1.25566,-1.29088 1.1692,-7.71921 -0.0717,-5.32834 -0.1325,-6.03889 -0.55285,-6.45891 -0.44155,-0.4412 -1.55704,-0.47685 -17.13177,-0.5475 l -16.65946,-0.0756 v -1.8354 -1.83539 l 3.77031,-0.0734 3.77032,-0.0734 0.16902,-4.8315 c 0.32311,-9.23612 1.63621,-17.42254 3.90119,-24.32172 0.88794,-2.70473 4.1029,-10.84519 4.40724,-11.15941 0.0816,-0.0842 2.04643,0.30499 3.36265,0.66606 0.4238,0.11626 0.46302,0.64049 0.46302,6.18957 v 6.06254 l 0.60945,0.15297 c 0.3352,0.0841 1.25794,0.11616 2.05053,0.0712 l 1.44106,-0.0818 v -16.66875 -16.66875 h -1.98437 -1.98438 l -0.0718,5.0823 -0.0718,5.08231 -0.85422,0.12962 c -1.99442,0.30265 -3.10318,0.35693 -3.10318,0.15193 0,-0.52081 -1.49535,-1.92567 -2.69886,-2.53553 -2.89757,-1.46831 -9.74599,-3.23306 -14.39478,-3.70934 l -1.69178,-0.17333 v -5.25512 -5.25513 h -2.24895 -2.24896 v 5.29963 5.29964 l -28.37656,-0.0741 -28.376564,-0.0741 -1.578668,-0.59543 c -1.991513,-0.75115 -3.18729,-1.70416 -4.422828,-3.52489 -1.187446,-1.74987 -1.802375,-3.81923 -1.807763,-6.0835 -0.0022,-0.93634 -0.100651,-1.85465 -0.218715,-2.04071 -0.161753,-0.25489 -1.155292,-0.32011 -4.030845,-0.26458 l -3.81618,0.0737 v 24.07708 24.07709 l 3.090892,0.0744 3.090891,0.0744 0.09035,-6.02751 c 0.08313,-5.54612 0.13878,-6.14866 0.696746,-7.54436 1.577457,-3.94589 4.899236,-7.33427 8.509904,-8.68054 1.947815,-0.72626 8.531574,-1.08233 21.033715,-1.1376 9.399175,-0.0415 11.223035,0.0747 14.684375,0.93604 3.57249,0.88898 5.86872,3.19044 6.86978,6.88541 0.22873,0.84429 0.29601,2.30167 0.20762,4.49792 -0.14787,3.67437 -0.67629,5.94746 -2.85805,12.29438 -4.03402,11.7353 -5.27768,16.15339 -5.27768,18.74884 v 0.91302 h 4.10104 4.10104 v 1.84733 1.84733 l -34.917697,0.0709 -34.917695,0.0709 -0.602615,0.6021 c -0.58437,0.58387 -0.60507,0.77538 -0.683678,6.32534 -0.0855,6.03696 0.03757,6.88931 1.10244,7.63518 0.479782,0.33605 8.600701,0.38634 62.392745,0.38634 45.39786,0 62.01561,-0.0795 62.49721,-0.29891 z"
         id="path3755"
         inkscape:connector-curvature="0" />
      <path
         style="fill:#6a6b6d;stroke-width:0.26458332"
         d="m 44.751725,293.94965 c -2.485935,-0.59644 -4.306794,-2.54367 -4.857018,-5.19408 -0.193521,-0.93219 -0.273041,-3.47997 -0.2167,-6.94293 0.08567,-5.26545 0.115137,-5.52611 0.786741,-6.95846 0.514281,-1.09683 1.036041,-1.72294 1.984375,-2.38125 l 1.286634,-0.89316 29.434895,-0.0706 29.434898,-0.0706 4e-5,-0.72312 c 5e-5,-0.84952 0.61936,-4.23813 1.21798,-6.66434 0.41534,-1.68341 1.59957,-5.3282 4.43109,-13.63793 2.64089,-7.75027 3.31915,-11.92334 2.4085,-14.81854 -0.88286,-2.80683 -2.32974,-3.65063 -7.52522,-4.38862 -2.45587,-0.34884 -22.281323,-0.1579 -26.995835,0.26 -4.239384,0.37579 -6.781821,2.18405 -8.837567,6.28558 -0.674534,1.3458 -0.682323,1.43128 -0.682323,7.48762 0,6.76034 -0.06942,7.10946 -1.653368,8.31461 -0.473096,0.35996 -1.276893,0.69353 -1.786215,0.74128 l -0.926042,0.0868 -0.07685,2.18281 -0.07685,2.18281 h 0.936743 0.936741 v 1.98438 1.98437 H 63.05034 62.124298 v 2.11667 2.11666 h -1.847294 -1.847295 l -0.07093,-6.28385 -0.07093,-6.28385 -1.719792,-0.13723 c -2.017362,-0.16097 -2.751148,-0.51494 -3.452752,-1.6656 -0.499546,-0.81927 -0.514019,-1.55818 -0.514019,-26.24301 0,-25.01047 0.0082,-25.41343 0.533971,-26.27581 0.933158,-1.53056 1.89867,-1.77002 7.136967,-1.77002 4.106733,0 4.747929,0.0598 5.671467,0.52917 1.704055,0.866 2.053411,1.58134 2.297084,4.70353 0.132419,1.69669 0.410276,3.20555 0.725895,3.94186 0.586666,1.36864 2.127729,2.75727 3.476387,3.13253 0.571608,0.15905 10.824834,0.25823 26.789061,0.25914 l 25.863022,0.001 v -5.15938 -5.15937 h 6.07994 6.07993 l 0.0716,5.34807 0.0716,5.34807 0.92604,0.18424 c 0.50933,0.10134 1.93808,0.38483 3.175,0.62999 2.85352,0.56556 7.95428,2.13584 9.59115,2.95265 l 1.25677,0.62714 0.002,-2.31956 c 0.002,-2.92974 0.32318,-4.07985 1.44395,-5.16833 1.03756,-1.00777 2.66908,-1.51685 4.86112,-1.51685 3.01085,0 4.97967,1.19147 5.58795,3.38165 0.37326,1.34399 0.37326,33.43229 0,34.77628 -0.37163,1.3381 -1.39287,2.48374 -2.57671,2.89058 -0.54094,0.1859 -1.94818,0.33581 -3.12719,0.33314 -3.85218,-0.009 -5.47179,-1.09239 -6.07927,-4.0675 l -0.29875,-1.46311 -0.43628,1.02633 c -0.23995,0.56448 -0.83771,2.70761 -1.32836,4.7625 -1.41223,5.91463 -2.1356,11.57813 -2.42743,19.00519 l -0.16332,4.15652 11.46562,0.0768 c 12.50098,0.0838 12.15232,0.0419 13.76143,1.65104 1.59099,1.59098 1.67294,2.04528 1.67294,9.27369 0,7.27545 -0.10921,7.95156 -1.54936,9.59182 -0.45754,0.52112 -1.36767,1.19551 -2.02251,1.49866 l -1.19063,0.55119 -62.17708,0.0404 c -34.197394,0.0222 -62.553332,-0.0498 -63.013196,-0.16015 z m 125.322565,-4.2363 0.66146,-0.50778 0.0792,-6.32006 c 0.0746,-5.94873 0.0487,-6.3577 -0.43952,-6.96081 l -0.51874,-0.64076 -16.69225,-0.0738 -16.69224,-0.0738 v -1.83719 -1.83719 l 3.77031,-0.0734 3.77032,-0.0734 0.18194,-4.49792 c 0.35228,-8.70888 1.31408,-15.46456 3.12649,-21.96041 0.74083,-2.65523 3.26037,-9.68449 3.69861,-10.31875 0.10054,-0.14552 0.4528,-1.00326 0.78278,-1.90607 0.66471,-1.81861 0.54028,-1.77619 3.23839,-1.10407 l 0.97406,0.24264 0.0843,5.95782 c 0.0699,4.94385 0.15182,6.00045 0.48115,6.20834 0.21828,0.13779 1.14397,0.25235 2.05707,0.25458 1.54034,0.004 1.67883,-0.045 1.91823,-0.67463 0.35132,-0.92404 0.34715,-31.33165 -0.004,-32.25636 -0.25363,-0.66711 -0.32661,-0.6877 -2.17172,-0.61253 -2.35993,0.0961 -2.26634,-0.13973 -2.30194,5.80161 -0.03,4.99856 0.1169,4.71609 -2.45594,4.7236 -1.00296,0.003 -1.27052,-0.0959 -1.40471,-0.51868 -0.28619,-0.90169 -2.37227,-2.20147 -5.02927,-3.1336 -2.96222,-1.03921 -9.66765,-2.49524 -12.7,-2.7577 l -0.79375,-0.0687 -0.0717,-5.22552 -0.0717,-5.22552 h -2.24337 -2.24336 v 5.29166 5.29167 h -27.13526 c -18.594376,0 -27.73415,-0.0926 -29.038016,-0.29421 -3.517612,-0.54389 -5.769068,-2.14859 -7.205924,-5.13593 -0.802433,-1.66833 -0.969621,-2.34316 -1.126828,-4.54828 l -0.184596,-2.58929 -4.036288,-0.073 -4.036289,-0.073 0.06754,24.15013 0.06754,24.15013 3.083614,0.0743 3.083614,0.0743 0.104704,-6.02744 c 0.07323,-4.21533 0.209818,-6.26609 0.45433,-6.8212 2.22429,-5.04979 4.487157,-7.51664 8.450425,-9.21218 1.541169,-0.65933 2.131801,-0.7428 7.011458,-0.99098 8.688988,-0.44191 23.394436,-0.37895 26.230596,0.11229 5.08983,0.8816 7.02486,1.94011 8.53144,4.66691 1.19266,2.15862 1.46027,3.57829 1.31471,6.97453 -0.17061,3.9808 -0.87495,6.77681 -4.00832,15.91193 -1.24786,3.63802 -2.51089,7.44802 -2.80674,8.46666 -0.69252,2.38442 -1.61138,7.26913 -1.42432,7.5718 0.0793,0.12837 1.9827,0.23341 4.22968,0.23341 h 4.08543 v 1.85208 1.85209 H 80.287737 c -23.400239,0 -34.744807,0.0893 -35.285404,0.27775 -1.284308,0.44771 -1.398867,1.05602 -1.398867,7.42797 v 5.82873 l 0.773397,0.7734 0.773398,0.7734 62.131289,-0.006 c 60.84814,-0.006 62.14495,-0.0164 62.79274,-0.51366 z"
         id="path3753"
         inkscape:connector-curvature="0" />
    </g>
  </g>
</svg>
